<?xml version="1.0" encoding="UTF-8" standalone="no"?>
<!-- Created with Inkscape (http://www.inkscape.org/) -->

<svg
   version="1.1"
   id="svg9"
   width="493.33334"
   height="401.33334"
   viewBox="0 0 493.33334 401.33334"
   sodipodi:docname="logo_hy_bw.svg"
   inkscape:version="1.2.1 (9c6d41e, 2022-07-14)"
   xmlns:inkscape="http://www.inkscape.org/namespaces/inkscape"
   xmlns:sodipodi="http://sodipodi.sourceforge.net/DTD/sodipodi-0.dtd"
   xmlns="http://www.w3.org/2000/svg"
   xmlns:svg="http://www.w3.org/2000/svg">
  <defs
     id="defs13" />
  <sodipodi:namedview
     id="namedview11"
     pagecolor="#ffffff"
     bordercolor="#000000"
     borderopacity="0.25"
     inkscape:showpageshadow="2"
     inkscape:pageopacity="0.0"
     inkscape:pagecheckerboard="0"
     inkscape:deskcolor="#d1d1d1"
     showgrid="false"
     inkscape:zoom="0.58803985"
     inkscape:cx="247.43221"
     inkscape:cy="200.66667"
     inkscape:window-width="1309"
     inkscape:window-height="456"
     inkscape:window-x="0"
     inkscape:window-y="37"
     inkscape:window-maximized="0"
     inkscape:current-layer="g17">
    <inkscape:page
       x="0"
       y="0"
       id="page15"
       width="493.33334"
       height="401.33334" />
  </sodipodi:namedview>
  <g
     id="g17"
     inkscape:groupmode="layer"
     inkscape:label="Page 1"
     transform="matrix(1.3333333,0,0,-1.3333333,0,401.33333)">
    <g
       id="g19"
       transform="scale(0.1)">
      <path
         d="m 3476.29,452.438 h -45.11 V 234.531 h 45.11 z m -390.7,0 v 0 H 3044.2 V 234.531 h 44.19 v 131.664 l 86.27,-131.664 h 38.58 v 217.907 h -44.18 V 325.426 Z m -73.98,0 v 0 h -45.12 V 234.531 h 45.12 z M 2817.48,297.066 v 0 l -26.77,-33.3 c 23.96,-22.383 52.9,-32.051 80.63,-32.051 42.36,0 73.15,24.894 73.15,65.351 v 0.645 c 0,33.918 -20.54,50.117 -58.5,65.078 -33.97,14.004 -41.44,19.934 -41.44,32.395 v 0.304 c 0,11.219 9.65,18.992 25.23,18.992 16.82,0 32.71,-9.023 46.39,-20.242 l 25.21,34.246 c -19.92,18.047 -44.8,26.75 -70.36,26.75 -42.04,0 -71.28,-25.824 -71.28,-63.785 v -0.621 c 0,-37.383 23.96,-52.023 62.56,-66.973 31.17,-11.816 37.38,-18.664 37.38,-29.578 v -0.304 c 0,-12.766 -10.58,-21.504 -28.02,-21.504 -21.82,0 -39.56,11.836 -54.18,24.597 z m -121.84,155.372 v 0 h -45.12 V 234.531 h 133.21 v 41.375 h -88.09 z m -71.41,0 v 0 H 2483.86 V 234.531 h 141.63 v 40.75 h -96.82 v 48.602 h 84.06 v 40.75 h -84.06 v 47.055 h 95.56 z m -289.41,0 v 0 h -45.11 V 234.531 h 45.11 v 88.731 h 71.64 v -88.731 h 45.12 v 217.907 h -45.12 v -87.481 h -71.64 z m -132.88,0 v 0 H 2061.56 V 234.531 h 45.12 v 86.239 h 83.73 v 41.363 h -83.73 v 48.926 h 95.26 z m -309.3,-107.727 v 0 c 0,43 21.5,69.769 52.02,69.769 30.22,0 52.02,-27.089 52.02,-70.058 v -2.199 c 0,-42.969 -21.51,-69.754 -51.7,-69.754 -30.22,0 -52.34,27.109 -52.34,70.078 z m -46.34,0.332 v 0 -3.738 c 0,-65.11 40.43,-110.516 98.36,-110.516 57.61,0 98.68,46.035 98.68,111.133 v 3.738 c 0,65.078 -40.45,110.52 -98.36,110.52 -57.62,0 -98.68,-45.742 -98.68,-111.137 z m -192.03,107.395 v 0 h -51.07 l 70.98,-131.989 v -85.918 h 45.11 v 86.528 l 70.99,131.379 h -49.82 l -43.25,-85.614 z m -54.56,0 v 0 h -154.39 v -41.7 h 54.81 V 234.531 h 44.78 v 176.207 h 54.8 z m -169.92,0 v 0 h -45.12 V 234.531 h 45.12 z m -306.42,-40.75 v 0 c 23.05,0 36.45,-10.918 36.45,-32.727 v -0.305 c 0,-19.605 -12.46,-32.722 -35.52,-32.722 h -33.32 v 65.754 z m 4.36,40.75 v 0 h -81.85 V 234.531 h 45.1 v 71.61 h 28.35 l 40.18,-71.61 h 51.64 l -46.36,80.953 c 23.96,10.567 40.44,31.399 40.44,64.422 v 1.25 c 0,21.504 -6.53,38.606 -18.34,50.442 -13.7,13.683 -33.93,20.84 -59.16,20.84 z m -399.781,0 v 0 H 679.07 l 73.469,-219.149 h 41.695 l 73.469,219.149 h -47.617 l -46.063,-150.04 z m -62.699,0 v 0 H 620.137 V 234.531 h 45.113 z m -205.828,0 v 0 H 418.043 V 234.531 h 44.172 V 366.195 L 548.484,234.531 H 587.07 V 452.438 H 542.91 V 325.426 Z M 389.707,320.113 v 0 132.325 H 344.91 V 317.93 c 0,-30.188 -14.637,-45.141 -38.008,-45.141 -23.347,0 -38.007,15.254 -38.007,46.086 v 133.563 h -45.106 v -133.27 c 0,-58.82 32.363,-88.078 82.5,-88.078 50.438,0 83.418,28.937 83.418,89.023 z m 629.883,132.325 v 0 H 879.207 V 234.531 h 141.613 v 40.75 h -96.824 v 48.602 h 84.074 v 40.75 h -84.074 v 47.055 h 95.594 z m 348.2,-155.372 v 0 0.645 c 0,33.918 -20.52,50.117 -58.5,65.078 -33.96,14.004 -41.44,19.934 -41.44,32.395 v 0.304 c 0,11.219 9.66,18.992 25.24,18.992 16.82,0 32.71,-9.023 46.39,-20.242 l 25.2,34.246 c -19.89,18.047 -44.8,26.75 -70.34,26.75 -42.04,0 -71.3,-25.824 -71.3,-63.785 v -0.621 c 0,-37.383 23.97,-52.023 62.57,-66.973 31.15,-11.816 37.39,-18.664 37.39,-29.578 v -0.304 c 0,-12.766 -10.6,-21.504 -28.04,-21.504 -21.82,0 -39.55,11.836 -54.18,24.597 l -26.76,-33.3 c 23.97,-22.383 52.89,-32.051 80.63,-32.051 42.34,0 73.14,24.894 73.14,65.351 z m 2047.39,155.372 v 0 h -53.24 l -71.31,-94.012 v 94.012 h -45.1 V 234.531 h 45.1 v 64.129 l 20.25,25.516 54.48,-89.645 h 52.94 l -76.3,125.465 73.18,92.442"
         style="fill:#231f20;fill-opacity:1;fill-rule:nonzero;stroke:none"
         id="path21" />
      <path
         d="m 1743.74,668.777 h 212.59 v 212.61 h -212.59 v -212.61"
         style="fill:#231f20;fill-opacity:1;fill-rule:nonzero;stroke:none"
         id="path23" />
      <path
         d="m 1743.74,2582.16 h 212.59 v 212.59 h -212.59 v -212.59"
         style="fill:#231f20;fill-opacity:1;fill-rule:nonzero;stroke:none"
         id="path25" />
      <path
         d="m 1956.33,1625.47 h -212.59 v 212.6 h 212.59 z m 1027.56,-242.43 v 0 c -81.82,179.98 -265.57,206.23 -380.57,281.23 -55.06,35.91 -77.36,107.98 -86.11,168.23 -54.19,-5.64 -144.41,-6.45 -187.51,103.11 -33.88,86.16 -19.84,228.93 -133.25,349.91 -103.13,110 -230,146.25 -346.41,138.08 142.66,-95.39 86.41,-239.2 -17.18,-239.2 -144.21,0 -184.54,173.67 -395.61,173.67 -48.29,0 -90.82,-15.07 -117.37,-32.61 118.2,-14.93 146.5,-111.86 183.45,-199.59 29.37,-69.72 81.87,-110.35 158.74,-131.6 -13.88,-7.99 -47.06,-17.81 -89.96,-17.81 -93.22,0 -158.16,49.06 -224.92,117.85 -58.75,60.52 -124.28,117.88 -234.16,117.88 -54.05,0 -95.43,-17.12 -109.77,-26.77 60.31,-9.5 149.42,-45.46 149.42,-109.26 0,-54.55 -60.36,-75.43 -109.79,-23.22 -55.05,58.14 -132.327,102.1 -220.765,102.1 -43.687,0 -87.379,-13.92 -105.945,-32 104.816,-12.09 166.886,-79.38 231.777,-229.45 36.621,-84.71 88.783,-164.79 220.113,-166.28 59.77,-0.72 144.63,27.7 194.45,-20.11 47.14,-45.26 31.31,-104.61 52.89,-152.74 27.13,-60.47 83.38,-91.65 193.38,-97.39 -91.25,-76.35 -309.38,-30.53 -383.65,47.48 9.75,-195.32 163.82,-370.5 469.66,-288.13 53.16,14.32 91.07,6.21 111.53,-47.56 28.08,-73.85 94.6,-86.1 157.46,-78.29 143.75,17.8 229.06,-11.15 311.8,-109.976 18.08,163.516 -98.84,259.616 -172.27,305.556 -69.96,43.76 -76.79,89.25 -77.66,124.48 50.63,-57.91 116.6,-82.45 185.24,-92.11 118.67,-16.7 203.67,-49.79 248.67,-113.41 13.13,179.79 -175.62,220.41 -198.75,296.04 59.38,-38.75 103.15,-52.82 165,-48.13 82.5,6.26 182.81,71.02 256.81,-55.75 94.44,61.38 218.19,39.5 301.26,-14.23"
         style="fill:#231f20;fill-opacity:1;fill-rule:nonzero;stroke:none"
         id="path27" />
    </g>
  </g>
</svg>
