<?xml version="1.0" encoding="UTF-8"?>
<svg width="466pt" height="328pt" version="1.1" viewBox="0 0 466 328" xmlns="http://www.w3.org/2000/svg">
 <g>
  <path d="m140.59 128.27h21.582l34.125 94.395h-28.324l-2.9688-8.4922h-27.246l-2.9688 8.4922h-28.324zm16.863 65.098-6.0703-16.555-6.0703 16.555zm-30.891 17.973 2.5625-7.0742h44.512l2.5625 7.0742h3.7773l-26.031-71.75h-5.125l-26.035 71.75zm24.82-68.352 21.039 57.879h-42.082z"/>
  <path d="m336.58 160.39c-1.6211-1.5078-3.6445-2.6406-6.0703-3.3945-2.4297-0.85156-4.8125-1.2773-7.1523-1.2773-2.6055 0-4.9883 0.51953-7.1484 1.5586-2.1562 0.94531-4.0469 2.3125-5.6641 4.1055-1.5273 1.6953-2.7422 3.7734-3.6406 6.2266s-1.3516 5.0938-1.3516 7.9258c0 2.8281 0.49609 5.4688 1.4844 7.9219 0.98828 2.4531 2.3398 4.5781 4.0469 6.3711 1.7109 1.6953 3.6875 3.0664 5.9375 4.1016 2.3359 0.94531 4.8086 1.418 7.418 1.418 3.0547 0 5.8438-0.66406 8.3633-1.9844 2.5156-1.4141 4.6758-3.3008 6.4727-5.6602h-8.0938v-19.812h34.668v31.418c-2.0703 3.8672-4.543 7.4062-7.418 10.613-2.8789 3.1133-6.1172 5.8047-9.7148 8.0664-3.5039 2.2656-7.3281 4.0117-11.465 5.2383-4.1367 1.2266-8.4062 1.8398-12.812 1.8398-6.4766 0-12.59-1.2734-18.344-3.8242-5.7578-2.5469-10.793-6.0352-15.109-10.473-4.2266-4.4336-7.5977-9.668-10.117-15.707-2.4258-6.0391-3.6406-12.547-3.6406-19.527 0-6.793 1.168-13.211 3.5078-19.25 2.3359-6.0352 5.5273-11.273 9.5742-15.707 4.1367-4.5273 8.9922-8.0664 14.57-10.613 5.6641-2.6406 11.734-3.9648 18.207-3.9648 5.0391 0 9.3984 0.51953 13.086 1.5586s6.7891 2.2188 9.3086 3.5391c2.9648 1.5078 5.4375 3.1602 7.418 4.9531zm1.3477-18.254c-1.168-0.56641-2.4727-1.0391-3.9141-1.418-1.2578-0.375-2.7422-0.70703-4.4492-0.98828-1.707-0.28516-3.5977-0.42578-5.6641-0.42578-4.7656 0-9.2188 0.89453-13.355 2.6875-4.1367 1.793-7.7344 4.293-10.789 7.5-3.0586 3.1133-5.4883 6.8906-7.2852 11.324-1.707 4.4336-2.5625 9.3398-2.5625 14.719 0 5.375 0.89844 10.281 2.6953 14.715 1.8008 4.4336 4.2734 8.2578 7.4219 11.465 3.1445 3.1133 6.7891 5.5664 10.926 7.3594 4.2266 1.793 8.7227 2.6875 13.488 2.6875 6.2031 0 11.824-1.5078 16.859-4.5273 5.0352-3.1133 9.1289-7.2188 12.273-12.312v-18.539h-14.297v3.3945h10.793v14.152c-2.7891 4.3398-6.4297 7.7852-10.926 10.332-4.4062 2.5469-9.3086 3.8203-14.703 3.8203-4.3164 0-8.3633-0.75391-12.141-2.2656-3.6875-1.6016-6.9688-3.8203-9.8477-6.6484-2.7852-2.9258-4.9883-6.3711-6.6094-10.332-1.6172-4.0586-2.4258-8.4922-2.4258-13.301 0-4.8125 0.76172-9.1992 2.293-13.164 1.6172-4.0547 3.7773-7.5 6.4727-10.328 2.7891-2.9258 6.0273-5.1445 9.7109-6.6523 3.6875-1.6055 7.6914-2.4062 12.008-2.4062 1.6172 0 3.1445 0.14062 4.5859 0.42578 1.4375 0.28125 2.6953 0.5625 3.7773 0.84766 1.2578 0.37891 2.4258 0.75391 3.5039 1.1328z"/>
  <path d="m371.25 175.54c0-6.793 1.2148-13.211 3.6406-19.25 2.5195-6.0352 5.8906-11.273 10.117-15.707 4.3164-4.5273 9.3516-8.0664 15.109-10.613 5.7539-2.6406 11.867-3.9648 18.344-3.9648 6.4727 0 12.59 1.3242 18.344 3.9648 5.7539 2.5469 10.746 6.0859 14.973 10.613 4.3164 4.4336 7.6875 9.6719 10.117 15.707 2.5156 6.0391 3.7773 12.457 3.7773 19.25 0 6.793-1.2617 13.207-3.7773 19.246-2.4297 6.0352-5.8008 11.32-10.117 15.848-4.2266 4.4336-9.2188 7.9727-14.973 10.613-5.7539 2.5508-11.871 3.8242-18.344 3.8242-6.4766 0-12.59-1.2734-18.344-3.8242-5.7578-2.6406-10.793-6.1797-15.109-10.613-4.2266-4.5273-7.5977-9.8125-10.117-15.848-2.4258-6.0391-3.6406-12.453-3.6406-19.246zm12.68 0c0 5 0.89844 9.7148 2.6953 14.148 1.8008 4.3398 4.2734 8.1641 7.4219 11.465 3.1445 3.3008 6.7891 5.8945 10.926 7.7852 4.2266 1.8867 8.7227 2.8281 13.488 2.8281s9.2148-0.94141 13.352-2.8281c4.2266-1.8906 7.9141-4.4844 11.062-7.7852 3.1484-3.3008 5.6211-7.125 7.418-11.465 1.7969-4.4336 2.6992-9.1484 2.6992-14.148 0-5.0039-0.90234-9.6719-2.6992-14.012-1.7969-4.4336-4.2695-8.3047-7.418-11.605-3.1484-3.3008-6.8359-5.8945-11.062-7.7812-4.1367-1.8906-8.5859-2.832-13.352-2.832s-9.2617 0.94141-13.488 2.832c-4.1367 1.8867-7.7812 4.4805-10.926 7.7812-3.1484 3.3008-5.6211 7.1719-7.4219 11.605-1.7969 4.3398-2.6953 9.0078-2.6953 14.012zm15.645 0c0 2.7344 0.49609 5.3281 1.4844 7.7812 0.99219 2.3594 2.3398 4.4336 4.0469 6.2266 1.7109 1.793 3.6875 3.207 5.9375 4.2461 2.3359 1.0391 4.8086 1.5586 7.418 1.5586 2.6055 0 5.0352-0.51953 7.2812-1.5586 2.3398-1.0391 4.3633-2.4531 6.0703-4.2461 1.7109-1.793 3.0586-3.8672 4.0469-6.2266 0.98828-2.4531 1.4844-5.0469 1.4844-7.7812 0-2.7383-0.49609-5.2852-1.4844-7.6445-0.98828-2.4531-2.3359-4.5742-4.0469-6.3672-1.707-1.793-3.7305-3.207-6.0703-4.2461-2.2461-1.0391-4.6758-1.5586-7.2812-1.5586-2.6094 0-5.082 0.51953-7.418 1.5586-2.25 1.0391-4.2266 2.4531-5.9375 4.2461-1.707 1.793-3.0547 3.9141-4.0469 6.3672-0.98828 2.3594-1.4844 4.9062-1.4844 7.6445zm18.887 32.547c-4.3164 0-8.3633-0.84766-12.141-2.5469-3.6875-1.6992-6.9688-4.0078-9.8477-6.9336-2.7852-3.0195-4.9883-6.4648-6.6094-10.332-1.6172-3.9609-2.4258-8.207-2.4258-12.734 0-4.5312 0.80859-8.7305 2.4258-12.598 1.6211-3.9609 3.8242-7.4062 6.6094-10.332 2.8789-3.0156 6.1602-5.375 9.8477-7.0742 3.7773-1.6992 7.8242-2.5469 12.141-2.5469 4.3164 0 8.3164 0.84766 12.004 2.5469 3.7773 1.6992 7.0586 4.0586 9.8477 7.0742 2.875 2.9258 5.125 6.3711 6.7422 10.332 1.6211 3.8672 2.4297 8.0664 2.4297 12.598 0 4.5273-0.80859 8.7734-2.4297 12.734-1.6172 3.8672-3.8672 7.3125-6.7422 10.332-2.7891 2.9258-6.0703 5.2344-9.8477 6.9336-3.6875 1.6992-7.6875 2.5469-12.004 2.5469z" fill="#cf0062"/>
 </g>
 <g fill="none" stroke="#cf0062" stroke-linecap="round" stroke-linejoin="round" stroke-width="141.73">
  <path transform="matrix(.1 0 0 -.1 0 328)" d="m2844.4 72.305c-498.12 362.27-797.7 936.68-809.49 1552.1-11.797 615.43 265.55 1200.9 749.41 1582"/>
  <path transform="matrix(.1 0 0 -.1 0 328)" d="m3057.9 537.77c-324.26 236.52-519.26 611.56-526.95 1013.4-7.6562 401.8 172.85 784.02 487.85 1032.8"/>
  <path transform="matrix(.1 0 0 -.1 0 328)" d="m1110.5 1845.2c-30.938-265.98-130.66-513.63-285.08-708.05"/>
  <path transform="matrix(.1 0 0 -.1 0 328)" d="m593.28 1714.5c-44.57-217.15-135.7-416.56-264.3-578.48"/>
  <path transform="matrix(.1 0 0 -.1 0 328)" d="m808.52 1116.8c-229.34 353.32-270.98 796.91-111.45 1186.9"/>
  <path transform="matrix(.1 0 0 -.1 0 328)" d="m517.81 870.12c-506.52 435.7-594.3 1188-201.76 1729.1"/>
 </g>
</svg>
