<?xml version="1.0" encoding="utf-8"?>
<!-- Generator: Adobe Illustrator 19.2.1, SVG Export Plug-In . SVG Version: 6.00 Build 0)  -->
<svg version="1.1" id="layer" xmlns="http://www.w3.org/2000/svg" xmlns:xlink="http://www.w3.org/1999/xlink" x="0px" y="0px"
	 viewBox="0 0 652 652" style="enable-background:new 0 0 652 652;" xml:space="preserve">
<style type="text/css">
	.st0{fill:#1F407A;}
</style>
<g>
	<path class="st0" d="M407,307h10.2l0,0.2l-13.7,68.3h-9.9l0-0.2l1.3-7.1c-4.9,5.4-11.6,8.1-20,8.1c-11.4,0-19.1-7.8-19.1-19.4
		c0-2.4,0.3-4.2,0.7-6.2l0.1-0.6l8.7-43.1h10l0,0.2l-8.5,42c-0.4,2.3-0.7,4.6-0.7,6.3c0,7.4,4.6,11.9,12.4,11.9
		c2.7,0,16.5-0.9,20.1-18.6L407,307z M467.2,306.1c-7.8,0-14.6,3.1-19,8.7l1.6-7.7l0-0.2h-9.9l-13.7,68.3l0,0.2h10.1l8.4-41.9
		c2.1-10.7,10.5-18.5,19.8-18.5c4,0,7.2,1.6,9.6,4.8l0.1,0.1l8.2-7.3l-0.1-0.1C478.4,308.2,473.5,306.1,467.2,306.1 M301,315.6
		l0,0.2h34.3L289.6,367l0,0l-1.7,8.4h48.7l1.7-8.9h-36.4l45.8-51.2l0,0l1.7-8.4h-46.7L301,315.6z M483.5,375.2l0,0.2h10l13.7-68.4
		h-9.9L483.5,375.2z M619.8,306.1c-8.3,0-14.7,2.5-19.7,7.7l7.8-38.1h-10.1l-20.2,99.7h10l8.4-41.9c3.6-17.7,17.5-18.6,20.2-18.6
		c7.7,0,12.3,4.4,12.3,11.9c0,1.7-0.3,4-0.7,6.3l-8.5,42.2h10l8.8-43.1c0.4-2.3,0.7-4.2,0.7-6.8
		C638.9,313.9,631.2,306.1,619.8,306.1 M553.2,306.1c-18.2,0-31,12.7-35.1,35c-0.7,3.7-1,7.9-1,10.5c0,15.2,9.3,24.6,24.3,24.6
		c8.7,0,16.6-3.3,23-9.6l0.1-0.1l-5.8-7l-0.1-0.1l-0.1,0.1c-5.3,5.6-10.1,7.8-16.5,7.8c-7.1,0-14.8-4.2-14.8-16
		c0-3.7,0.4-6.8,1.1-10.2c1.1-5.8,3.5-13.9,8.9-19.5c4.3-4.4,9.4-6.6,15.1-6.6c6,0,9.8,2.1,13.4,7.5l0.1,0.1l7.4-6.2l0.1-0.1
		l-0.1-0.1C568,309.2,561.9,306.1,553.2,306.1 M501.1,288.2h10.1l2.5-12.5h-10L501.1,288.2z M403.4,288.2h10.1l2.5-12.5h-10
		L403.4,288.2z M376.6,288.2h10.1l2.5-12.5h-10L376.6,288.2z M242.3,314.3h-22.6l7.9-38.6H35.5l-20.2,99.7h76.6l5-24.9H51.7
		l2.7-13.7h45.2l4.6-22.4H59l2.7-13.7h71.7l-15.1,74.8h31.4l15.1-74.8h26.4l-15.1,74.8h31.4l7.7-38.6h22.6l-7.8,38.6h31.4l20.2-99.7
		h-31.4L242.3,314.3z"/>
</g>
</svg>
