<?xml version="1.0" encoding="UTF-8" standalone="no"?>
<!-- Created with Inkscape (http://www.inkscape.org/) -->

<svg
   version="1.1"
   id="svg244"
   width="486.66666"
   height="265.07999"
   viewBox="0 0 486.66666 265.07999"
   sodipodi:docname="logo_gu.svg"
   inkscape:version="1.2.1 (9c6d41e, 2022-07-14)"
   xmlns:inkscape="http://www.inkscape.org/namespaces/inkscape"
   xmlns:sodipodi="http://sodipodi.sourceforge.net/DTD/sodipodi-0.dtd"
   xmlns="http://www.w3.org/2000/svg"
   xmlns:svg="http://www.w3.org/2000/svg">
  <defs
     id="defs248" />
  <sodipodi:namedview
     id="namedview246"
     pagecolor="#ffffff"
     bordercolor="#000000"
     borderopacity="0.25"
     inkscape:showpageshadow="2"
     inkscape:pageopacity="0.0"
     inkscape:pagecheckerboard="0"
     inkscape:deskcolor="#d1d1d1"
     showgrid="false"
     inkscape:zoom="0.89029733"
     inkscape:cx="244.30041"
     inkscape:cy="132.53999"
     inkscape:window-width="1309"
     inkscape:window-height="456"
     inkscape:window-x="0"
     inkscape:window-y="37"
     inkscape:window-maximized="0"
     inkscape:current-layer="g252">
    <inkscape:page
       x="0"
       y="0"
       id="page250"
       width="486.66666"
       height="265.07999" />
  </sodipodi:namedview>
  <g
     id="g252"
     inkscape:groupmode="layer"
     inkscape:label="Page 1"
     transform="matrix(1.3333333,0,0,-1.3333333,0,265.08)">
    <g
       id="g254"
       transform="scale(0.1)">
      <path
         d="m 2059.48,1043.52 0.51,5.1 25.95,8.77 c 14.27,4.82 27.31,10.12 28.97,11.78 5.91,5.91 6.27,15.65 5.79,157.04 -0.49,147.56 -0.31,144.52 -8.71,148.76 -2.24,1.14 -15.04,5.69 -28.43,10.13 l -24.35,8.07 v 4.75 4.75 l 22.8,-1.04 c 93.5,-4.31 145.71,-4.31 244.1,0 l 23.41,1.03 -0.02,-42.75 -0.02,-42.74 h -4.33 c -4.83,0 -5.28,0.92 -15.29,31.22 -5.81,17.62 -9.06,22.3 -16.8,24.25 -10.15,2.54 -47.34,3.48 -93.81,2.35 l -45.35,-1.09 -0.89,-5.56 c -0.49,-3.07 -1.35,-32.58 -1.92,-65.6 l -1.02,-60.03 60.91,0.54 c 52.49,0.47 61.69,0.9 66.59,3.1 6.66,2.98 7.83,5.08 16.8,30.24 6.63,18.62 6.82,18.93 11.48,18.93 h 4.73 l 0.05,-66.47 0.03,-66.48 h -4.74 c -4.73,0 -4.79,0.1 -11.49,20.48 -3.69,11.27 -7.72,22.46 -8.94,24.86 -4.58,9.02 -7.56,9.42 -74.52,10.02 l -60.91,0.55 1,-66.99 c 0.55,-36.85 1.44,-70.57 1.96,-74.94 l 0.95,-7.96 31.13,-1.08 c 49.36,-1.72 108.98,-0.51 114.61,2.32 6.12,3.1 12.81,16.62 21.2,42.88 l 6.55,20.49 h 5.24 c 4.94,0 5.18,-0.26 4.22,-4.25 -0.55,-2.34 -1.42,-23.66 -1.93,-47.37 l -0.93,-43.11 -12.54,0.94 c -6.9,0.51 -41.44,1.73 -76.76,2.69 -61.09,1.67 -140.45,0.55 -190.59,-2.7 l -15.19,-0.99 0.5,5.11 z m -451.41,0 0.5,5.1 25.78,8.71 c 14.18,4.79 27.19,9.98 28.91,11.54 6.21,5.62 6.5,13.11 6.04,157.21 -0.51,157.89 0.62,145.68 -13.95,151.05 -4.47,1.64 -17.01,5.93 -27.85,9.52 -19.54,6.47 -19.71,6.56 -19.71,11.26 v 4.74 l 14.3,-1.01 c 62.61,-4.39 80.91,-4.39 144.55,0.02 l 14.3,0.99 v -4.71 -4.7 l -26.17,-8.84 c -28.24,-9.53 -31.89,-11.86 -34.21,-21.87 -0.77,-3.27 -1.4,-31.51 -1.42,-62.76 l -0.04,-56.81 h 82.85 82.84 l -0.6,59.9 c -0.42,40.99 -1.18,61.25 -2.42,64.16 -2.62,6.15 -9.05,9.46 -35.51,18.28 -23.57,7.87 -23.58,7.87 -23.58,12.61 v 4.75 l 14.3,-1.03 c 60.41,-4.33 87.22,-4.32 144.66,0.06 l 12.87,0.97 -0.5,-5.14 -0.5,-5.14 -25.71,-8.62 c -14.13,-4.74 -26.78,-9.55 -28.12,-10.67 -5.4,-4.57 -5.77,-15.52 -5.34,-157.24 0.35,-115.01 0.8,-139.81 2.57,-143.26 2.65,-5.16 5.99,-6.71 34.57,-16.09 l 22.81,-7.48 v -5.29 -5.28 l -8.9,0.93 c -4.88,0.5 -24.42,1.72 -43.41,2.7 -32.69,1.69 -78.83,0.55 -110.52,-2.72 l -9.01,-0.93 0.5,5.05 c 0.5,5.04 0.55,5.06 23.69,13.09 12.75,4.43 24.68,8.86 26.49,9.83 6.32,3.41 8.5,12.98 9.94,43.61 0.73,15.72 1.35,46.51 1.39,68.41 l 0.06,39.8 h -82.88 -82.89 l 0.83,-64.54 c 0.47,-37.43 1.52,-67.79 2.5,-72.27 2.9,-13.32 4.53,-14.52 32.7,-24.11 l 25.39,-8.65 0.5,-5.11 0.5,-5.11 -9,0.93 c -4.95,0.51 -24.09,1.73 -42.53,2.71 -31.89,1.71 -75.38,0.66 -111.52,-2.67 l -10.56,-0.97 0.51,5.09 z m -306.1,-0.04 c 0.49,4.9 0.95,5.2 16.73,10.89 29.81,10.74 38.72,15.77 42.02,23.7 1.62,3.89 2.12,34.16 2.47,149.04 l 0.43,144.16 -22.84,-0.04 c -42.87,-0.07 -63.89,-3.92 -68.64,-12.56 -1.1,-2 -6.24,-14.76 -11.42,-28.37 -9.3,-24.41 -9.48,-24.73 -14.37,-25.21 l -4.95,-0.49 v 49.04 49.04 l 23.58,-1.04 c 99.8,-4.35 148.75,-4.35 248.13,0 l 23.57,1.04 v -48.95 -48.93 h -5.04 -5.05 l -9.76,26.1 c -6.98,18.66 -11.02,27.31 -14.19,30.35 -7.05,6.76 -17.25,8.52 -55.24,9.56 l -34.4,0.94 0.06,-129.71 c 0.05,-134.51 0.87,-158.17 5.76,-166.59 3.49,-5.98 16.35,-12.76 39.79,-20.97 16.64,-5.82 17.02,-6.06 17.51,-11 l 0.5,-5.04 -9.01,0.95 c -4.95,0.53 -24.89,1.79 -44.3,2.79 -33.61,1.75 -81,0.58 -112.84,-2.79 l -9.01,-0.95 0.51,5.04 z m -446.782,0.07 0.5,5.14 24.539,8.19 c 13.496,4.5 26.156,9.25 28.136,10.55 7.305,4.78 7.391,6.26 8,137.92 0.606,131.13 -0.277,158.84 -5.269,165.53 -2.949,3.95 -5.086,4.87 -37.242,15.94 -18.602,6.39 -18.942,6.6 -18.942,11.18 v 4.68 l 22.805,-1.05 c 95.328,-4.37 138.935,-4.37 243.105,0.01 l 23.96,1 v -42.73 -42.74 h -4.71 c -4.55,0 -4.85,0.44 -9.09,13.52 -8.31,25.57 -13.47,37.56 -17.21,40.01 -5.9,3.87 -39.9,5.39 -95.15,4.27 l -50.397,-1.02 -1,-18.59 c -0.551,-10.22 -1,-39.69 -1,-65.49 v -46.91 l 53.727,0.01 c 52.26,0.01 70.05,1.19 76.26,5.07 2.72,1.69 6.87,11.16 16.93,38.59 3.04,8.28 3.6,8.89 8.17,8.89 h 4.92 v -66.47 -66.48 h -4.82 -4.81 l -8.14,23.32 c -8.27,23.68 -10.93,28.04 -18.3,30.06 -2.27,0.62 -31.18,1.44 -64.24,1.82 l -60.115,0.68 0.711,-74.31 c 0.394,-40.87 1.211,-74.8 1.812,-75.41 0.613,-0.6 33.032,-1.13 72.042,-1.17 69.62,-0.07 71.01,-0.01 75.3,3.17 6.41,4.75 10.17,12.38 19.11,38.79 7.95,23.52 8.04,23.68 12.66,23.68 h 4.65 l -0.92,-10.44 c -0.51,-5.74 -1.38,-27.05 -1.95,-47.36 l -1.02,-36.93 -12.53,0.94 c -6.9,0.52 -41.49,1.73 -76.88,2.7 -61.173,1.67 -142.095,0.52 -189.692,-2.71 l -14.414,-0.98 0.504,5.14 z m -203.446,14.47 c 58.754,18.95 87.606,88.96 77.848,188.92 -7.332,75.15 -33.793,120.4 -79.574,136.08 -16.481,5.65 -43.942,6.95 -62.043,2.94 -48.504,-10.73 -81.563,-50.03 -90.993,-108.18 -2.871,-17.69 -2.875,-57.69 -0.015,-81.2 9.976,-82.03 41.875,-129.12 95.91,-141.59 14.84,-3.42 43.41,-1.95 58.867,3.03 z m -80.512,-22.17 c -15.98,3.36 -28.511,7.65 -41.738,14.28 -65.277,32.71 -102.207,108.51 -93.594,192.1 4.961,48.13 21.204,84.75 51.079,115.14 30.562,31.09 65.402,46.7 114.117,51.15 79.488,7.27 146.871,-30.15 175.043,-97.2 27.183,-64.71 16.48,-155.14 -24.926,-210.53 -26.469,-35.41 -61.773,-57.47 -105.172,-65.7 -18.09,-3.44 -56.723,-3.04 -74.809,0.76 z m -394.992,-2.22 c -2.121,0.37 -10.472,1.78 -18.547,3.14 -68.8824,11.57 -122.6676,52.9 -144.6207,111.11 -13.285144,35.24 -14.98436,81.4 -4.35155,118.1 22.61325,78.03 99.11725,133.71 195.94925,142.62 21.566,1.99 57.348,0.18 83.887,-4.22 l 15.222,-2.54 v -47.82 -47.82 l -4.617,0.46 c -4.457,0.44 -4.883,1.2 -11.996,21.33 -4.059,11.48 -10.133,26.64 -13.504,33.68 -6.89,14.42 -8.23,15.37 -28.238,19.94 -8.149,1.85 -18.598,2.55 -38.266,2.54 -22.957,0 -28.926,-0.51 -39.418,-3.38 -46.566,-12.68 -79.7927,-44.55 -96.1364,-92.21 C 62.2617,1261.33 59,1214.02 64.293,1182.55 c 9.5468,-56.75 41.41,-99.71 86.891,-117.12 19.031,-7.3 28.101,-8.7 55.203,-8.55 23.5,0.14 33.414,1.39 52.949,6.64 l 6.566,1.77 v 53.35 53.35 l -3.832,3.56 c -2.109,1.95 -13.414,7.24 -25.121,11.75 -11.711,4.5 -23.551,9.1 -26.312,10.2 -4.133,1.66 -5.024,2.85 -5.024,6.73 0,5.75 -2.183,5.65 46.141,2.28 28.488,-1.99 39.293,-2.12 58.191,-0.72 12.766,0.95 29.993,2.15 38.282,2.67 l 15.074,0.95 v -4.84 c 0,-4.69 -0.641,-5.15 -20.711,-14.73 -14.664,-7 -21.551,-11.17 -23.574,-14.27 -2.668,-4.07 -2.868,-8.66 -2.903,-66.21 l -0.035,-61.85 -10.785,-2.82 c -29.285,-7.67 -54.496,-10.82 -90.406,-11.28 -19.129,-0.25 -36.524,-0.15 -38.649,0.22 z m 3010.512,748.54 c 12.35,8.34 19.67,11.45 28.89,12.29 10.85,0.98 22.76,-2.64 30.23,-9.19 3.72,-3.27 5.44,-4.01 5.89,-2.54 0.35,1.15 1.03,3.31 1.51,4.81 4.16,12.87 -19.65,34.26 -41.82,37.59 -8.81,1.32 -29.34,-1.55 -46.7,-6.55 -12.2,-3.5 -13.13,-3.57 -15.84,-1.11 -6.24,5.64 -1.96,25.31 9.03,41.48 8.49,12.48 28.7,34.29 33.07,35.68 4.44,1.41 3.7,6.66 -1.14,7.87 -8.44,2.12 -43.1,-13.1 -53.76,-23.61 -6.94,-6.84 -12.6,-18.2 -15.16,-30.37 -2.38,-11.35 0.95,-20.25 11.31,-30.18 6.57,-6.31 7.76,-8.43 9.25,-16.48 2.23,-12.09 4.84,-16.86 11.87,-21.73 5.05,-3.5 7.06,-3.95 15.85,-3.5 8.31,0.42 11.37,1.39 17.52,5.54 z m -425.42,-36.45 c 8.77,4.93 12.23,11.53 13.87,26.43 1.72,15.74 6.18,24.95 15.08,31.2 6.18,4.33 7.5,4.64 19.24,4.38 6.94,-0.15 14.32,-0.5 16.39,-0.77 3.28,-0.44 3.97,0.35 5.41,6.13 2.2,8.83 18.95,29.56 31.26,38.67 17.21,12.74 27.07,14.83 48.74,10.32 18.64,-3.88 26.08,-6.85 40.79,-16.28 16.98,-10.89 20.45,-11.97 25.44,-7.92 5.63,4.55 2.55,9.02 -12.3,17.82 -14.39,8.53 -18.66,12.5 -18.66,17.34 0,11.62 21.74,10.71 47.06,-1.96 12.38,-6.2 30.24,-18.41 30.24,-20.69 0,-3.57 11.03,-24.35 13.42,-25.27 1.75,-0.67 4.17,0.54 7.28,3.64 4.01,4.02 4.75,6.04 5.29,14.72 1.27,19.94 -2.31,26.2 -22.7,39.59 -17.5,11.5 -22.5,12.6 -41.29,9.1 -8.44,-1.58 -18.18,-2.89 -21.66,-2.93 -10.96,-0.12 -29.88,5.67 -39.97,12.23 -28.08,18.26 -42.19,19.53 -69.65,6.29 -15.3,-7.38 -24.96,-15.32 -23.44,-19.28 0.98,-2.55 2.62,-2.68 20.08,-1.68 l 19.02,1.1 4.93,-4.14 c 6.09,-5.13 6.13,-7.02 0.29,-13.66 -7.68,-8.75 -20.52,-16.64 -30.47,-18.71 -24.04,-5.02 -76.07,-46.35 -94.79,-75.29 -10.68,-16.53 -11.8,-26.83 -3.43,-31.38 5.71,-3.1 7.44,-2.98 14.53,1 z m 525.61,-70.28 c 0.38,9.25 -0.13,12.86 -3.5,24.35 -5.49,18.75 -13.31,33.09 -23.73,43.51 -8.9,8.9 -10.48,9.8 -24.89,14.19 -16.4,5.01 -18.08,5.38 -23.48,5.09 -2.53,-0.13 -3.48,-1.13 -3.48,-3.67 0,-2.41 3.55,-6.55 11.51,-13.44 13.97,-12.1 19.64,-19.45 30.21,-39.21 12.95,-24.19 24.35,-36.6 33.64,-36.61 2.95,-0.01 3.52,0.88 3.72,5.79 z m -113.52,-116.72 c 0.68,6.02 0.19,7.5 -4.04,12.33 -5.56,6.32 -12.22,9.81 -24.83,13.02 -7.94,2.01 -10.08,1.99 -19.46,-0.19 -11.77,-2.72 -14.63,-4.45 -14.63,-8.79 0,-2.16 -2.7,-4.18 -9.82,-7.38 -9.65,-4.33 -11.82,-6.65 -11.82,-12.64 0,-4.84 3.1,-4.81 16.69,0.15 14.7,5.36 19.7,5.68 31.34,2.01 11.41,-3.59 11.55,-3.55 10.97,3.04 -0.43,5.04 -0.07,5.79 2.81,5.79 1.95,0 6.59,-3.36 11.32,-8.21 4.42,-4.51 8.64,-7.71 9.37,-7.09 0.73,0.62 1.68,4.2 2.1,7.96 z m -39.47,-24.32 c 1.32,2.92 1.16,4.53 -0.82,7.52 -3.73,5.7 -8.73,6.74 -12.13,2.52 -3.84,-4.73 -3.52,-8.73 1.05,-13.3 3.19,-3.19 4.4,-3.56 7.03,-2.14 1.75,0.93 3.94,3.37 4.87,5.4 z m 217.25,-46.83 c 5.33,1.75 12.49,5.6 16.04,8.64 6.41,5.49 6.41,5.49 5.6,14.46 -0.56,6.21 -2.46,11.97 -6.12,18.66 -7.81,14.27 -12.02,13.95 -24.6,-1.85 -15.81,-19.85 -40.82,-20.48 -59.8,-1.5 -8.65,8.65 -11.76,15.85 -11.66,26.94 0.18,17.11 11.26,32.62 27.13,37.95 11.05,3.72 12.63,7.72 6.9,17.5 -8.16,13.92 -24.94,21.34 -34.95,15.46 -9.26,-5.44 -20.9,-26.64 -24.93,-45.43 -3.92,-18.27 12.35,-54.89 32.41,-72.92 9.49,-8.54 26.24,-17.51 38.31,-20.52 10.73,-2.67 22.05,-1.84 35.67,2.61 z m -652.51,-54.31 c 5.79,2.87 10.59,7.57 21.04,20.61 7.67,9.58 13.52,18.34 13.52,20.24 0,2.47 -1.59,3.99 -5.97,5.71 l -5.98,2.35 -6.61,-7.69 c -11.75,-13.63 -22.04,-17.08 -30.09,-10.06 -2.96,2.57 -4.38,5.85 -5.46,12.63 -1.73,10.74 -2.77,12.13 -8.61,11.45 -3.73,-0.43 -4.77,-1.71 -7.33,-9.01 -1.64,-4.68 -3.33,-13.06 -3.76,-18.64 -0.77,-10.14 1.38,-17.06 7.69,-24.72 7.17,-8.71 17.83,-9.68 31.56,-2.87 z m 375.92,-53.86 c 3.91,3.24 6.74,11.88 5.62,17.15 -1.23,5.77 -4.47,9.76 -10.48,12.87 l -4.39,2.27 1.07,-9.94 c 0.82,-7.68 0.49,-11.02 -1.42,-14.71 -1.36,-2.64 -2.47,-6.31 -2.47,-8.15 0,-2.95 0.59,-3.25 4.87,-2.39 2.69,0.54 5.92,1.84 7.2,2.9 z m 59.3,-323.02 c 18.53,9.19 45.24,26.71 52.56,34.47 16.66,17.67 37.19,51.22 43.82,71.6 3.56,10.94 3.3,19.96 -1.48,52.68 -5.26,35.97 -6.85,43.31 -9.61,44.37 -3.32,1.27 -5.79,-1.96 -10.92,-14.33 -6.66,-16.07 -14.75,-27.56 -30.48,-43.24 -26.05,-26 -75.22,-54.39 -105.52,-60.92 -23.68,-5.1 -27.45,-6.53 -28.02,-10.55 -0.51,-3.62 19.03,-42.85 27.44,-55.07 5.35,-7.78 14.72,-16.46 24.61,-22.82 10.16,-6.53 18.46,-5.69 37.6,3.81 z m -270.93,498.08 c 6.95,6.64 9.99,8.51 13.8,8.51 4.55,0 4.88,-0.37 4.88,-5.41 0,-2.97 0.18,-5.4 0.39,-5.39 0.21,0.01 4.21,1.04 8.89,2.29 4.68,1.26 11.86,2.3 15.97,2.31 l 7.48,0.02 -1.04,6.18 -1.05,6.18 h 5.64 c 3.46,0 7.82,-1.49 11.31,-3.86 7.29,-4.95 8.06,-4.87 8.06,0.92 0,10.1 -10.86,20.07 -28.45,26.1 -10.34,3.54 -16.49,3.85 -29.62,1.46 -15.32,-2.78 -27.47,-11.89 -34.45,-25.82 -4.84,-9.65 -5.19,-13.43 -1.65,-17.93 4.98,-6.33 9.63,-5.29 19.84,4.44 z m 53.38,-22.07 c 3.47,4.97 3.12,13.08 -0.66,15.1 -4.43,2.38 -10.84,0.25 -12.51,-4.15 -3.94,-10.36 7.13,-19.57 13.17,-10.95 z m 65.98,-93.62 c -7.1,8.62 -15.55,25.59 -16.55,33.24 -0.78,5.95 -0.14,7.92 5.72,17.53 5.25,8.59 6.74,12.65 7.26,19.71 0.84,11.32 -1.54,11.7 -12.41,1.93 -6.28,-5.64 -8.83,-6.96 -13.57,-6.96 -9.39,0 -10.41,3.08 -3.98,12.03 3.02,4.2 6.51,10.1 7.77,13.11 2.13,5.1 2.07,5.76 -0.9,9.53 -1.74,2.22 -5.3,5.14 -7.89,6.48 -6.03,3.12 -7.48,1.11 -6.32,-8.74 0.61,-5.09 0.06,-8.85 -1.84,-12.88 -3.51,-7.37 -15.23,-17.65 -21.47,-18.82 -7.79,-1.47 -21.46,4.45 -28.07,12.15 -5.33,6.19 -5.55,6.9 -5.07,16.52 0.48,9.45 0.3,10.08 -3.02,10.54 -4.1,0.59 -12.19,-7.17 -13.68,-13.1 -2.11,-8.42 7.89,-23.72 15.51,-23.72 3.71,0 2.97,-4.28 -1.52,-8.77 -3.41,-3.42 -4.95,-3.87 -10.91,-3.19 -8.83,0.99 -13.43,5.22 -19.77,18.14 l -4.92,10.05 -7.69,-0.46 c -7.12,-0.43 -8.2,0 -14.42,5.75 l -6.74,6.21 0.79,11.26 c 1.11,15.9 5.91,27.29 16.17,38.37 19.59,21.17 59.12,31.26 93.7,23.93 15.03,-3.19 37,-16.09 54.31,-31.91 9.62,-8.8 10.85,-11.06 13.9,-25.61 1.88,-8.99 1.72,-11.02 -2.63,-31.71 l -4.64,-22.11 3.33,-20.1 c 3.71,-22.4 3.96,-29.94 1.25,-37.85 -2.52,-7.36 -5.95,-7.51 -11.7,-0.55 z m -15.43,-387.36 c 9.77,6.27 35.56,33.36 45.67,47.98 14.99,21.7 19.02,32.42 13.8,36.75 -1.17,0.98 -9.7,2.45 -18.94,3.27 -39.35,3.47 -67.74,17.59 -103.61,51.53 -16.98,16.08 -30.19,34.94 -42.92,61.29 -13.86,28.68 -11.31,30.25 12.76,7.86 34.41,-32 62.6,-53.81 81.38,-62.92 l 10.78,-5.23 h 31.84 c 35.8,0 43.32,1.35 54.24,9.7 8.88,6.79 13.72,16.34 13.72,27.08 0,15.44 -8.85,23.42 -29.86,26.9 -7.99,1.32 -12.65,1.15 -23.67,-0.87 -17.4,-3.2 -23.04,-3.13 -30.72,0.37 -17.59,7.99 -10.79,19.09 13.25,21.66 8.5,0.91 13.78,0.31 30.21,-3.39 17.24,-3.89 20.79,-4.26 26.42,-2.74 8.72,2.36 15.47,8.34 17.66,15.64 2.3,7.68 -0.73,12.85 -9.98,17.06 -8.94,4.06 -14.57,3.72 -28.09,-1.65 -13.42,-5.32 -19.71,-5.72 -30.38,-1.93 -7.58,2.69 -7.65,2.68 -19.6,-1.55 -6.59,-2.33 -13.45,-4.25 -15.24,-4.25 -1.78,0 -7.5,3.13 -12.69,6.96 -5.2,3.83 -9.85,6.96 -10.35,6.96 -0.5,0 -3.92,-2.16 -7.6,-4.81 -6.65,-4.78 -6.72,-4.78 -10.59,-1.94 -4.37,3.24 -4.21,6.41 0.83,16.47 4.24,8.47 8.87,9.73 18.29,4.95 10.84,-5.49 15.42,-5.04 23.93,2.33 12.62,10.91 18.99,10.27 31.93,-3.21 11.43,-11.89 14.13,-11.97 25.31,-0.69 12.56,12.66 19.37,13.12 35.52,2.36 5.11,-3.4 10.42,-6.18 11.81,-6.18 1.4,0 7.11,2.13 12.7,4.75 5.58,2.62 11.73,4.53 13.64,4.25 5.6,-0.81 10.56,-9.7 10.56,-18.94 0,-12.14 2.63,-14.8 14.63,-14.8 h 9.83 l 9.02,9.9 c 15.4,16.88 42.67,63.83 47.68,82.08 1.61,5.89 3,19.73 3.77,37.88 1.08,25.23 1.79,30.59 6.07,45.49 5.08,17.72 5.86,27.44 3.3,41.26 -1.55,8.38 -7.44,16.09 -11.37,14.89 -4.18,-1.27 -8.72,-14.07 -8.72,-24.55 0,-9.06 -0.55,-11.03 -4.26,-15.47 -7.52,-9.02 -13.29,-13.57 -24.17,-19.11 -12.34,-6.26 -17.14,-6.71 -22.11,-2.05 -4.38,4.12 -4.52,8.33 -0.48,14.42 4.07,6.16 3.97,6.59 -2.32,9.59 -9.82,4.68 -6.46,8.72 10.1,12.17 6.17,1.29 12.34,2.95 13.7,3.69 4.19,2.29 12.05,11.34 15.46,17.81 5.14,9.75 4.15,14.18 -4.44,19.9 -5.75,3.83 -6.98,3.15 -7.18,-4.04 -0.59,-21.47 -20.43,-35.84 -38.85,-28.14 -10.97,4.58 -17.39,14.24 -17.39,26.16 0,8.65 -2.04,9.01 -12.64,2.21 -4.69,-3.01 -7.87,-6.31 -8.49,-8.83 -0.89,-3.51 0.28,-5.2 9.29,-13.35 5.66,-5.14 10.29,-10.52 10.29,-11.96 0,-3.67 -5.96,-7.43 -11.75,-7.43 -7.65,0 -8.31,-2.25 -5.02,-17.01 1.61,-7.23 3.5,-22.31 4.18,-33.52 1.35,-22.11 0.32,-19.35 13.09,-35.13 1.54,-1.91 3.45,-6.4 4.25,-9.96 1.21,-5.33 0.93,-7.51 -1.53,-12.24 -3.25,-6.28 -9.74,-13.42 -16.22,-17.86 -2.26,-1.55 -5.85,-5.57 -7.98,-8.95 -5.63,-8.93 -8.8,-9.89 -23.04,-6.94 -16.7,3.46 -21.72,3.19 -27.82,-1.46 -7.95,-6.06 -14.84,-3.34 -20.71,8.17 -1.84,3.59 -4.93,7.58 -6.88,8.86 -3.22,2.11 -4.55,1.95 -15.04,-1.8 -13.9,-4.95 -17.56,-4.36 -27.07,4.41 -8.41,7.75 -11.35,15.75 -8.21,22.35 1.58,3.31 3.4,4.58 7.06,4.93 4.15,0.41 5.31,-0.26 7.38,-4.25 1.33,-2.6 2.83,-4.73 3.31,-4.73 0.48,0 5.15,3.82 10.4,8.5 5.53,4.94 10.97,8.5 13,8.5 6.25,0.02 13.05,-9.39 15.14,-20.91 1.6,-8.87 3.38,-11.53 9.39,-14.04 10.89,-4.55 23.58,2.65 26.99,15.31 1.38,5.09 1.06,8.61 -1.77,20.07 -3.62,14.65 -3.6,12.51 -0.47,62.19 0.88,13.92 0.51,17.39 -3.74,34.78 -6.28,25.75 -7.04,32.91 -5.07,47.12 2.39,17.13 5.88,23.96 16.58,32.39 10.85,8.55 32.54,19.4 48.46,24.25 21.65,6.6 45.81,3.57 64.1,-8.03 5.62,-3.56 8.31,-4.46 10.04,-3.36 3.62,2.26 7.62,14.14 7.7,22.81 0.08,9.67 -3.68,17.92 -18.18,39.91 -10.58,16.03 -15.74,27.99 -15.74,36.51 0,2.18 1.4,12.54 3.11,23.02 3.48,21.33 2.71,32.32 -3.12,44.36 -6.77,14.01 -23.08,28.53 -36.59,32.6 -5.73,1.72 -10.59,1.69 -30.33,-0.21 -38.83,-3.73 -41,-3.54 -70.43,6.51 -22.61,7.71 -27.24,8.79 -38.11,8.86 -14.82,0.1 -57.86,-4.53 -71.84,-7.73 -33.19,-7.61 -58.62,-32.27 -69.32,-67.21 -4.16,-13.61 -6.94,-38.04 -5.66,-49.91 1.34,-12.51 -0.28,-18.18 -13.21,-46.61 -5.79,-12.76 -11.37,-26.32 -12.39,-30.15 -1.4,-5.25 -1.53,-19.67 -0.52,-58.74 1.95,-74.96 1.89,-77.13 -2.25,-83.83 -1.92,-3.09 -6.64,-7.47 -10.51,-9.74 -11.11,-6.51 -13.34,-15.51 -9.84,-39.68 2.18,-15.11 5.27,-20.57 13.71,-24.22 8.46,-3.66 10.45,-2.89 17.3,6.65 9.35,13.01 13.24,10.87 12.59,-6.95 -0.7,-19.26 8.26,-53.51 21.48,-82.03 l 7.6,-16.4 -6.09,-17.61 c -3.35,-9.68 -8.64,-27.28 -11.77,-39.1 -7.8,-29.6 -7.39,-38.95 2.7,-60.06 24.75,-51.81 54.41,-87.31 98.37,-117.72 21.56,-14.93 26,-15.94 37.56,-8.51 z m -1.48,-74.871 c 4.36,3.949 3.37,10.109 -3.92,24.271 -11.23,21.83 -16.27,27.56 -30.78,35.04 -27.55,14.2 -46.17,31.65 -74.56,69.91 -10.78,14.52 -17.92,22.8 -19.68,22.8 -4.2,0 -3.48,-5.27 3.45,-25.37 21.51,-62.37 47.93,-99.02 85.48,-118.561 23.52,-12.231 33.25,-14.199 40.01,-8.09 z m 197.31,-6.168 c 21.89,15.07 57.11,64.239 66.82,93.259 2.17,6.46 3.66,15.69 4.19,25.85 0.73,14 0.52,15.93 -1.83,16.84 -3.68,1.41 -5.98,-1.59 -10.24,-13.32 -8.82,-24.29 -42.69,-64.87 -64.83,-77.71 -5.53,-3.2 -15.97,-7.61 -23.2,-9.8 -14.08,-4.28 -18.55,-7.103 -18.55,-11.732 0,-4.996 5.68,-14.348 12.42,-20.43 13.07,-11.808 21.37,-12.508 35.22,-2.957 z m -132.99,-6.32 c 24.62,5.078 44.63,14.039 53.65,24.019 7.99,8.844 8.18,11.86 1.58,24.08 -8.94,16.54 -8.77,16.39 -16.01,14.44 -7.23,-1.95 -10.96,-7.08 -14.72,-20.26 -1.35,-4.73 -4.07,-10.99 -6.06,-13.912 l -3.61,-5.316 -16.38,0.148 c -14,0.129 -17.46,0.691 -23.87,3.867 -10.03,4.977 -10.4,8.43 -1.88,17.673 9.5,10.31 14,12.31 22.39,9.95 5.78,-1.61 7.28,-1.52 10.61,0.66 8.6,5.64 17.1,29.85 15.87,45.2 -1.39,17.26 -10.45,26.45 -15.82,16.06 -1.98,-3.84 -2.28,-7.36 -1.45,-17.59 0.83,-10.28 0.55,-13.73 -1.48,-17.66 -4.55,-8.8 -10.4,-9.97 -24.91,-4.97 -20.69,7.11 -30.15,1.58 -30.15,-17.62 0,-23.808 17.5,-54.808 33.69,-59.699 5.86,-1.762 5.35,-1.793 18.55,0.93 z m -158.45,1.148 c -0.19,2.742 -5.26,11.16 -13.5,22.422 -7.25,9.918 -20.61,29.169 -29.68,42.769 -9.08,13.6 -21.18,31.7 -26.88,40.2 -5.71,8.5 -13.33,20.32 -16.93,26.27 -7.14,11.82 -14.98,20.88 -18.07,20.88 -1.08,0 -2.75,-1.47 -3.71,-3.27 -1.48,-2.76 -0.58,-5.55 5.88,-18.19 9.72,-19.05 31.98,-55.32 59.96,-97.686 23.55,-35.684 26.8,-38.953 37.83,-38.164 4.9,0.359 5.38,0.8 5.1,4.769 z M 0,871.539 v 16.621 l 1208.16,-0.512 1208.17,-0.5 0.02,10.551 c 0.07,34.531 16.5,71.551 43.86,98.817 30.14,30.034 62.18,48.434 158.64,91.044 72.96,32.23 119.04,54.67 119.04,57.96 0,4.39 -11.39,26.05 -30.06,57.24 -25.21,42.1 -31.01,54.24 -31.01,64.94 0,5.96 1.15,10.8 3.85,16.23 5.98,11.98 31.34,36.15 62.24,59.31 15.09,11.31 27.44,21.2 27.44,21.97 0,1.08 -16.46,24.39 -19.46,27.56 -0.33,0.34 -5.37,-2.55 -11.19,-6.42 -26.23,-17.44 -44.56,-22.85 -66.79,-19.72 -31.14,4.41 -50.73,24.49 -56.68,58.12 -4.41,24.95 1.48,57.76 15.13,84.14 l 6,11.61 -6.12,14.21 c -8.52,19.76 -12.39,35.6 -12.37,50.58 0.02,14.94 3.2,22.84 15.23,37.78 10.15,12.61 10.08,11.53 3.12,48.12 -3.23,16.94 -4.64,29.42 -4.84,42.58 -0.27,17.75 -0.09,18.96 3.94,25.82 2.31,3.96 8.29,10.34 13.26,14.16 10.66,8.21 14.1,14.55 14.1,26.06 0,13.09 2.6,24.1 8.54,36.21 9.39,19.15 27.33,34.48 62.78,53.62 l 13.34,7.21 3.39,14.69 c 7.44,32.17 19.47,46.75 51.46,62.32 55.49,27.01 101.18,30.59 134.28,10.5 l 8.65,-5.25 10.68,4.56 c 23.14,9.89 53.27,16.76 93.92,21.41 49.29,5.63 64.86,3.87 82.39,-9.37 7.51,-5.67 25.54,-26.27 27.1,-30.97 0.42,-1.22 3.95,-0.12 10.61,3.32 8.71,4.5 11.49,5.16 21.83,5.21 10.73,0.05 12.47,-0.39 18.54,-4.64 3.79,-2.65 8.89,-8.38 11.69,-13.14 2.75,-4.65 5.53,-9.33 6.19,-10.41 0.93,-1.52 2.78,-1.17 8.16,1.55 5.71,2.87 9.48,3.51 20.99,3.51 13.45,0 14.6,-0.28 27.6,-6.73 22.53,-11.16 43.55,-33.47 55.69,-59.11 11.54,-24.35 14.46,-48.76 8.58,-71.75 -1.7,-6.65 -3.1,-12.62 -3.1,-13.25 0,-0.64 3.12,-2.67 6.93,-4.51 24.49,-11.86 39.4,-51.7 45.68,-122.05 2.11,-23.66 1.39,-29.36 -7.17,-56.18 -8.22,-25.77 -8.49,-30.2 -2.19,-34.87 12.68,-9.37 24.49,-22.2 28.3,-30.76 12.05,-27.05 11.79,-72.19 -0.54,-96.54 -9.17,-18.08 -29.68,-37.48 -43.84,-41.44 -11.87,-3.32 -29.63,-1.25 -52.44,6.12 -10.93,3.54 -20.69,6.11 -21.71,5.72 -4.1,-1.58 -21.45,-30.42 -18.29,-30.43 0.61,0 13.64,-6.66 28.94,-14.81 45.78,-24.35 66.96,-40.08 72.78,-54.02 3.16,-7.57 2.71,-21.94 -1.07,-34.19 -1.8,-5.83 -8.14,-21.04 -14.1,-33.79 -21.64,-46.37 -42.92,-94.34 -42.92,-96.76 0,-2.83 9.11,-7.28 71.89,-35.12 116.03,-51.47 168.65,-79.72 195.98,-105.22 15.91,-14.841 31.57,-40.571 39.16,-64.372 6.24,-19.519 8.31,-32.269 9.37,-57.59 l 0.98,-23.566 H 1821.37 0 v 16.617 z M 3233.37,718.59 c -12.99,8.32 -18.1,21.691 -12.45,32.601 3.36,6.5 12.45,13.789 18.66,14.95 11.81,2.218 24.94,-6.711 28.79,-19.563 5.46,-18.219 -19.33,-38.047 -35,-28 z m -99.02,-0.629 c -9.68,4.219 -17.37,17.937 -15.53,27.73 1.37,7.278 9.14,15.809 17.22,18.899 5.85,2.23 7.97,2.379 13.05,0.859 20.59,-6.168 26.52,-28.109 11.42,-42.219 -7.89,-7.371 -17.07,-9.23 -26.16,-5.269 z m 297.67,-350.402 c 0,4.461 0.54,4.82 14.3,9.613 17.78,6.168 32.22,12.949 35.63,16.719 1.44,1.578 3.31,6.57 4.16,11.089 0.97,5.098 1.57,55.481 1.57,132.668 v 124.43 l -28.99,-1.098 c -41.39,-1.589 -48.62,-3.351 -53.69,-13.14 -1.29,-2.5 -5.41,-12.75 -9.17,-22.789 -3.75,-10.039 -7.3,-19.481 -7.9,-20.961 -0.67,-1.711 -2.72,-2.699 -5.55,-2.699 h -4.47 v 44.269 44.281 l 18.94,-1.203 c 51.06,-3.25 164.78,-3.258 224.17,-0.019 l 21.26,1.16 v -44.25 -44.238 l -4.26,0.007 c -4.06,0.012 -4.63,1.032 -12.55,22.442 -8.27,22.359 -11.75,28.73 -17.29,31.699 -5.48,2.941 -17.65,4.352 -46.69,5.461 l -28.98,1.109 0.01,-118.871 c 0,-66.418 0.67,-124.597 1.51,-131.859 2.13,-18.527 5.33,-21.309 38.29,-33.348 15.32,-5.601 15.84,-5.941 15.84,-10.453 0,-4.519 -0.17,-4.637 -5.79,-3.758 -3.19,0.489 -20.59,1.692 -38.68,2.66 -31.14,1.668 -80.56,0.418 -104.32,-2.621 -7.34,-0.949 -7.35,-0.949 -7.35,3.7 z m -196.34,126.05 c 0,0.262 -12.02,29.411 -26.72,64.789 l -26.71,64.321 -23.91,-55.047 c -13.15,-30.281 -25.8,-59.434 -28.11,-64.781 l -4.18,-9.719 h 54.82 c 30.15,0 54.81,0.199 54.81,0.437 z M 3014.61,367.422 c 0,4.219 0.94,4.84 17.48,11.769 9.61,4.008 18.54,8.168 19.83,9.239 1.3,1.058 7.46,13.761 13.67,28.218 6.21,14.454 26.56,60.711 45.23,102.801 30.53,68.852 61.32,139.903 73.35,169.281 4.37,10.649 4.53,10.829 10.58,11.282 l 6.15,0.449 13,-32.922 c 22.66,-57.379 79.34,-194.269 113.18,-273.348 l 3,-7 21.59,-7.5 c 21.32,-7.39 21.6,-7.55 21.6,-12.132 0,-4.637 0,-4.649 -7.34,-3.719 -24.46,3.07 -74.77,4.39 -102.87,2.699 -16.33,-0.98 -31.96,-2.187 -34.72,-2.68 -4.78,-0.847 -5.02,-0.66 -5.02,3.852 0,4.289 0.64,4.93 6.56,6.5 7.81,2.07 40.13,12.371 41.65,13.269 1.1,0.641 -19.25,62.309 -24.71,74.911 l -3.08,7.089 -22.2,1.02 c -28.14,1.289 -51.85,1.301 -81.27,0.02 l -23.24,-1.008 -6.23,-14.832 c -10.06,-23.969 -21.81,-64.418 -19.36,-66.692 0.68,-0.648 10.46,-4.457 21.72,-8.468 20.13,-7.18 20.49,-7.391 20.49,-11.95 0,-4.511 -0.18,-4.629 -5.8,-3.742 -19.53,3.082 -57.16,4.363 -79.51,2.692 -13.03,-0.961 -25.94,-2.168 -28.7,-2.649 -4.72,-0.851 -5.03,-0.633 -5.03,3.551 z m -225.7,0.129 c 0,4.469 0.52,4.82 15.84,10.281 24.87,8.887 32.34,13.109 35.94,20.277 3.01,6 3.11,9.723 3.54,135.071 l 0.45,128.91 -29.05,-1.11 c -27.35,-1.05 -41.62,-2.582 -45.79,-4.929 -6.05,-3.403 -9.35,-9.25 -17.4,-30.871 -8.58,-23.02 -9.01,-23.789 -13.26,-23.789 h -4.39 v 44.058 44.063 l 5.81,-0.043 c 3.18,-0.02 18.32,-0.719 33.62,-1.547 15.3,-0.832 57.04,-1.512 92.75,-1.512 35.72,0 77.45,0.68 92.77,1.512 15.3,0.828 30.43,1.527 33.62,1.547 l 5.79,0.043 v -44.063 -44.058 h -4.38 c -4.25,0 -4.68,0.769 -13.26,23.789 -9.01,24.179 -11.86,28.679 -20.23,31.89 -4.58,1.75 -41.11,4.461 -61.51,4.559 l -10.49,0.051 0.44,-128.7 c 0.51,-149.402 -0.87,-136.902 16.18,-145.41 5.8,-2.89 16.98,-7.539 24.84,-10.34 13.73,-4.871 14.31,-5.25 14.31,-9.699 0,-4.609 -0.05,-4.633 -6.99,-3.679 -3.84,0.519 -21.53,1.718 -39.29,2.648 -30.49,1.609 -79.05,0.352 -102.52,-2.648 -7.34,-0.942 -7.34,-0.93 -7.34,3.699 z m -278.28,0 c 0,4.558 0.3,4.73 21.25,11.929 11.7,4.008 22.81,8.282 24.68,9.469 7.28,4.629 7.41,7.281 7.26,137.449 -0.13,99.793 -0.55,123.551 -2.33,129.872 l -2.16,7.73 -24.35,8.27 c -24.23,8.23 -24.35,8.3 -24.35,12.929 v 4.672 l 11.99,-1.121 c 34.52,-3.25 100.9,-3.262 131.4,-0.031 l 11.2,1.179 v -4.488 c 0,-4.398 -0.43,-4.64 -20.47,-11.219 -27.08,-8.89 -28.53,-9.703 -30.5,-17.019 -4.17,-15.461 -5.35,-207.774 -1.54,-249.031 1.19,-12.801 1.85,-15.11 5.19,-17.993 2.11,-1.828 13.62,-6.589 25.58,-10.57 21.59,-7.199 21.74,-7.289 21.74,-11.93 v -4.687 l -8.11,0.937 c -25.41,2.961 -70.79,4.122 -100.36,2.551 -17.29,-0.898 -34.74,-2.078 -38.77,-2.59 -7.35,-0.949 -7.35,-0.937 -7.35,3.692 z M 1971.09,544.25 c 26.1,4.121 40.79,12.961 49.32,29.68 4.66,9.14 5.34,12.039 6,25.679 0.61,12.711 0.17,17.243 -2.54,26.172 -5.93,19.508 -22.59,33.258 -46.4,38.309 -6.84,1.449 -20.66,2.18 -41.54,2.199 l -31.31,0.031 v -61.84 -61.832 h 28.21 c 15.52,0 32.74,0.731 38.26,1.602 z M 1805.67,367.629 c 0,4.441 0.61,4.883 12.76,9.23 7.01,2.52 17.46,6.129 23.21,8.012 5.75,1.899 11.48,4.449 12.72,5.699 5.24,5.239 5.53,13.27 5.09,140.129 -0.41,115.551 -0.65,126.039 -3.08,129.742 -2.13,3.25 -7.3,5.579 -26.67,12.039 -23.92,7.969 -24.03,8.032 -24.03,12.668 v 4.661 l 9.67,-1.129 c 18.56,-2.168 50.05,-3.032 75.36,-2.059 84.81,3.238 91.6,3.277 107,0.738 59.15,-9.769 87.61,-44.097 78.39,-94.578 -5.53,-30.261 -29.45,-52.64 -66.82,-62.519 l -13.3,-3.512 43.6,-64.93 c 23.98,-35.718 46.66,-68.351 50.39,-72.519 7.6,-8.512 14.15,-12.313 26.07,-15.11 7.27,-1.711 8.11,-2.339 8.11,-6.011 v -4.098 l -37.14,0.148 -37.15,0.141 -11.29,18.481 c -20.77,33.957 -54.46,83.57 -82.52,121.527 l -14.58,19.711 h -18.59 -18.58 l 0.78,-58.36 c 0.83,-61.242 1.76,-70.3 7.75,-75.75 1.87,-1.699 13.3,-6.371 25.42,-10.371 21.9,-7.238 22.03,-7.308 22.03,-11.961 v -4.687 l -8.11,0.937 c -25.14,2.922 -69.95,4.082 -99.13,2.571 -17.11,-0.891 -34.77,-2.039 -39.24,-2.571 l -8.12,-0.937 v 4.668 z m -369.21,0.332 0.51,5.078 23.71,8.02 c 13.05,4.421 24.35,9.019 25.13,10.222 4.25,6.598 4.58,17.649 4.16,139.418 -0.4,115.551 -0.65,126.039 -3.09,129.742 -2.13,3.25 -7.29,5.579 -26.67,12.039 -23.81,7.942 -24.02,8.051 -24.02,12.61 v 4.59 l 25.12,-1.239 c 32.2,-1.613 169.65,-1.621 206.11,-0.031 l 27.94,1.211 v -38.699 -38.711 h -4.01 c -3.76,0 -4.46,1.309 -11.55,21.75 -4.15,11.98 -8.65,23.109 -10.01,24.75 -1.5,1.809 -6.01,3.629 -11.43,4.617 -12.53,2.274 -117.8,1.313 -120.22,-1.109 -1.24,-1.239 -2.03,-19.028 -2.62,-59.141 l -0.86,-57.348 38.5,0.04 c 45.42,0.039 73.6,1.89 78.58,5.16 2.2,1.429 5.08,6.769 7.78,14.39 10.17,28.719 9.97,28.34 14.61,28.34 h 4.28 l 0.04,-59.519 0.03,-59.52 h -4.24 c -4.03,0 -4.54,0.91 -10.99,19.66 -3.72,10.809 -8.15,21.25 -9.85,23.188 -4.88,5.59 -15.72,6.621 -69.24,6.621 h -49.5 l 0.96,-63.77 c 0.52,-35.082 1.39,-65.261 1.91,-67.082 0.95,-3.226 1.85,-3.328 43.73,-4.457 47.79,-1.293 80.28,-0.281 86.46,2.688 6.43,3.101 10.11,10.011 18.29,34.32 7.42,22.051 7.68,22.551 12.03,22.551 h 4.45 l -0.98,-8.121 c -0.54,-4.457 -1.42,-23.68 -1.97,-42.688 l -0.99,-34.57 -10.21,0.937 c -5.61,0.532 -36.29,1.672 -68.18,2.551 -54.85,1.52 -138.04,0.281 -172.1,-2.551 l -12.09,-1.007 0.49,5.07 z m -593.917,-0.313 c 0,4.622 0.227,4.75 19.715,11.18 26.59,8.774 29.207,10.094 31.332,15.91 2.965,8.114 4.933,92.582 3.883,166.262 -1.18,82.219 -2.297,98.73 -6.953,102.488 -1.797,1.461 -13.325,5.973 -25.618,10.043 -21.949,7.258 -22.359,7.469 -22.359,11.891 v 4.488 l 11.211,-1.199 c 30.305,-3.211 94.652,-3.223 130.633,-0.02 l 12.754,1.137 v -4.68 c 0,-4.628 -0.145,-4.707 -22.707,-12.226 -17.457,-5.82 -23.399,-8.492 -25.684,-11.551 -2.656,-3.562 -3.113,-8.133 -4.277,-42.43 -1.629,-48.191 -1.653,-150.601 -0.039,-191.769 1.464,-37.242 1.48,-37.281 16.703,-42.281 5.773,-1.903 16.234,-5.512 23.25,-8.032 12.172,-4.359 12.754,-4.781 12.754,-9.25 v -4.699 l -7.34,0.949 c -4.043,0.512 -21.289,1.68 -38.336,2.571 -29.125,1.539 -76.176,0.359 -100.801,-2.532 l -8.121,-0.937 v 4.687 z m 1416.097,-9.539 c -2.13,0.321 -9.08,1.332 -15.46,2.27 -6.37,0.93 -18.02,3.742 -25.89,6.25 -17.07,5.441 -15.91,-0.09 -10.43,49.859 2.11,19.41 3.85,36.25 3.85,37.434 0,1.34 1.7,2.137 4.53,2.137 5.19,0 4.41,2.05 15.66,-41.321 l 6.5,-25.066 8.39,-3.152 c 19.69,-7.36 48.28,-9.192 68.51,-4.372 28.41,6.762 46.99,27.301 48.98,54.141 1.02,13.563 -0.93,21.57 -7.65,31.57 -8.31,12.352 -21.06,21.039 -59.83,40.743 -42.86,21.777 -53,28.117 -66.7,41.699 -15.95,15.808 -22.97,32.371 -23.01,54.238 -0.03,22.902 8.2,42.582 24.54,58.66 34.02,33.492 87.9,41.25 148.39,21.41 l 14.49,-4.757 -1.11,-34.981 c -0.61,-19.242 -1.66,-35.562 -2.34,-36.293 -2.69,-2.84 -6.68,0.07 -9.21,6.723 -1.47,3.828 -5.98,16.519 -10.04,28.199 l -7.38,21.25 -9.67,2.988 c -23.45,7.242 -46.59,7.832 -63.19,1.621 -11.66,-4.359 -25.74,-17.347 -31.49,-29.05 -3.8,-7.731 -4.3,-10.528 -4.3,-23.469 0,-17.629 2.85,-24.738 14.66,-36.488 10.25,-10.192 18.29,-14.872 55.13,-32.043 38.12,-17.77 47.51,-23.399 61.76,-36.93 18.56,-17.629 27.03,-40.059 24.72,-65.488 -1.99,-21.981 -9.21,-37.121 -25.47,-53.379 -9.58,-9.582 -14.49,-13.082 -26.45,-18.821 -16.3,-7.812 -33.89,-12.621 -54.88,-14.98 -13.28,-1.481 -37.37,-1.813 -45.61,-0.602 z m -1040.43,0.602 c 0,8.461 -99.99,259.859 -118.01,296.73 -5.78,11.809 -10.28,15.25 -27.39,20.957 -11.61,3.864 -12.28,4.332 -12.28,8.602 0,5.238 -0.56,5.172 22.41,2.891 19.81,-1.961 76.24,-1.942 94.31,0.039 19.93,2.191 19.32,2.269 19.32,-3 0,-4.078 -0.72,-4.782 -6.57,-6.328 -16.82,-4.493 -35,-10.993 -36.81,-13.172 -1.65,-1.989 -1.39,-4.328 1.53,-13.52 6.59,-20.711 63.11,-160.75 80.84,-200.269 l 3.72,-8.289 20.32,50.796 c 32.09,80.262 58.42,153.75 59.43,165.93 0.39,4.692 -0.22,5.641 -5.56,8.684 -3.29,1.879 -11.82,5.386 -18.93,7.808 -12.04,4.078 -12.94,4.692 -12.94,8.66 0,4.942 -0.19,4.918 18.55,2.7 16.82,-1.989 59.62,-2 72.66,-0.02 15.02,2.289 15.03,2.289 14.24,-3.058 -0.51,-3.481 -1.7,-4.891 -4.76,-5.614 -8.73,-2.066 -20.19,-8.617 -24.14,-13.797 -10.75,-14.089 -60.92,-134.793 -106,-254.98 l -19.71,-52.563 -7.11,-0.468 c -4.56,-0.301 -7.12,0.16 -7.12,1.281 z M 159.234,358.012 c -2.125,0.367 -8.961,1.418 -15.187,2.34 -43.012,6.359 -73.4337,30.668 -85.6837,68.5 -3.586,11.07 -3.9414,21.109 -4.8438,138.519 -0.6289,81.418 -1.0625,86.891 -7.4648,93.82 -1.7149,1.86 -12.4336,7 -23.8125,11.438 -20.08595,7.82 -20.69532,8.191 -20.69532,12.621 v 4.578 l 12.75392,-1.129 c 36.3555,-3.219 94.5002,-3.211 129.0902,0.012 l 12.754,1.187 v -4.488 c 0,-4.262 -0.739,-4.762 -14.305,-9.699 -23.715,-8.641 -36.164,-14.852 -39.274,-19.59 -2.6129,-3.992 -2.9722,-10.43 -4.2769,-77.082 -1.5157,-77.598 -0.1797,-118.629 4.4489,-136.109 8.09,-30.578 26.094,-47.692 56.817,-53.989 15.433,-3.16 45.504,-3.222 57.453,-0.113 26.941,7.024 43.738,23.121 53.203,51 l 4.199,12.383 -0.094,83.469 c -0.105,93.73 -1.628,121.199 -7.046,126.968 -3.547,3.774 -12.036,7.403 -32.668,13.934 -12.754,4.039 -13.528,4.527 -13.528,8.598 0,4.98 -0.5,4.922 19.321,2.75 18.203,-1.981 72.179,-1.989 88.89,-0.008 18.824,2.226 18.559,2.277 18.559,-2.863 0,-4.059 -0.871,-4.77 -9.664,-7.989 -13.934,-5.101 -26.2,-11.441 -29.762,-15.379 -2.996,-3.32 -3.121,-6.32 -4.082,-99.492 -0.906,-88.16 -1.246,-97.301 -4.102,-110.769 -5.117,-24.141 -11.109,-38.321 -22.679,-53.719 -13.075,-17.379 -33.379,-29.902 -58.453,-36.02 -12.266,-3.011 -50.395,-5.351 -59.868,-3.679 z m 523.957,6.457 c -21.886,31.84 -186.593,255.441 -192.73,261.652 -2.027,2.051 -2.191,-10.812 -1.422,-110.543 0.574,-74.316 1.449,-114.808 2.559,-118.598 0.925,-3.16 3.222,-6.832 5.101,-8.16 1.879,-1.332 13.328,-5.57 25.449,-9.41 l 22.028,-6.988 v -4.762 -4.75 l -7.344,0.93 c -4.039,0.512 -19.355,1.699 -34.035,2.621 -25.18,1.609 -61.934,0.488 -85.777,-2.59 -7.336,-0.961 -7.34,-0.949 -7.34,3.68 0,4.527 0.437,4.789 22.031,12.937 12.113,4.571 23.508,9.762 25.324,11.543 2.461,2.418 3.547,5.949 4.289,13.93 2.235,24.051 4.074,83.359 5.039,162.219 l 1.008,83.511 -3.723,5.77 c -3.187,4.937 -5.949,6.641 -19.183,11.777 -8.504,3.293 -19.113,7.172 -23.574,8.621 -7.434,2.391 -8.121,3.02 -8.121,7.301 0,4.469 0.253,4.649 5.023,3.738 11.738,-2.226 61.719,-2.886 75.566,-0.988 11.743,1.602 14.309,1.57 15.317,-0.18 11.179,-19.269 26.051,-41.039 50.34,-73.648 16.281,-21.852 50.617,-67.922 76.297,-102.363 l 46.683,-62.61 -0.578,98.95 c -0.617,103.882 -0.633,104.089 -7.609,111.543 -1.715,1.82 -12.797,7.296 -24.633,12.179 -20.899,8.61 -21.52,8.989 -21.52,13.489 v 4.64 l 9.664,-1.172 c 26.813,-3.238 76.852,-3.238 111.309,0 l 11.98,1.133 -0.007,-5.973 -0.004,-5.988 -17.383,-6.019 c -21.637,-7.493 -28.352,-10.821 -30.797,-15.243 -3.32,-6.019 -5.934,-79.769 -6.91,-194.789 l -0.93,-109.371 h -6.574 c -6.461,0 -6.715,0.203 -14.813,11.981 z M 3311.44,9.03125 c 0,2.50005 2.43,3.89065 12.75,7.26955 7.01,2.289 13.8,5.1601 15.08,6.3594 1.99,1.8984 2.31,12.3281 2.31,75.3398 0,59.051 -0.4,73.621 -2.08,75.648 -1.15,1.383 -7.93,4.411 -15.08,6.743 -8.84,2.879 -12.98,4.988 -12.98,6.609 0,2.102 5.37,2.391 44.06,2.391 38.29,0 44.06,-0.309 44.06,-2.34 0,-1.539 -4.49,-3.903 -13.29,-6.942 -7.99,-2.769 -13.91,-5.769 -14.84,-7.507 -2.05,-3.832 -3.57,-95.5004 -2.07,-125.102 0.81,-16.0781 1.78,-23.5 3.28,-24.9883 1.17,-1.1719 7.71,-3.9922 14.52,-6.2617 9.98,-3.3203 12.4,-4.7305 12.4,-7.21875 0,-2.89062 -0.66,-3.01172 -10.44,-1.95312 -13.52,1.46093 -53.86,1.47265 -67.24,0.02343 -9.79,-1.08203 -10.44,-0.95312 -10.44,1.9375 z M 3194.05,87.7383 c -1.62,4.0508 -8.17,19.8707 -14.57,35.1717 l -11.62,27.828 -3.07,-6.949 c -1.7,-3.828 -8.63,-19.66 -15.4,-35.18 l -12.31,-28.2106 h 29.95 29.96 l -2.94,7.3399 z M 3073.36,8.94922 c 0,2.24998 2.73,4.14058 10.9,7.57028 l 10.89,4.5821 11.33,26.1679 c 6.24,14.4024 19.65,44.961 29.82,67.9105 10.16,22.961 22.2,50.648 26.75,61.531 12.16,29.07 11.29,29.711 33.19,-24.43 9.63,-23.801 25.87,-63.1091 36.08,-87.3396 l 18.59,-44.0625 12.48,-4.4297 c 9.9,-3.5 12.49,-5.0508 12.49,-7.46873 0,-2.87109 -0.69,-2.99219 -11.98,-1.89063 -15.3,1.46875 -52.6,1.48047 -64.16,0.01172 -8.25,-1.05078 -8.89,-0.90234 -8.89,1.98047 0,2.55857 2.33,3.81637 13.14,7.11717 7.23,2.211 13.14,4.7617 13.14,5.6602 0,2.0195 -12.2,38.1015 -14.17,41.9219 -1.27,2.457 -4.61,2.6992 -36.21,2.6992 h -34.82 l -3.74,-8.4414 c -3.85,-8.7188 -12.24,-36.2383 -11.31,-37.0899 0.3,-0.2695 5.41,-2.2187 11.36,-4.3398 8.47,-3.0196 10.93,-4.5899 11.33,-7.25002 0.48,-3.1875 0.09,-3.32813 -6.4,-2.35938 -9.57,1.44141 -40.19,1.51172 -50.92,0.12109 -8.15,-1.0625 -8.89,-0.90234 -8.89,1.83985 z m -298.37,0.07031 c 0,2.37887 2.52,3.96097 11.57,7.26957 6.36,2.3125 12.23,5.0117 13.03,5.9726 2.9,3.5 9.65,52.5977 14.77,107.5083 2.91,31.128 3.02,44.031 0.43,46.101 -1.06,0.859 -6.27,3.117 -11.59,5.039 -7.01,2.531 -9.66,4.238 -9.66,6.289 0,2.621 1.66,2.742 27.45,1.91 15.08,-0.488 27.84,-1.32 28.34,-1.847 0.48,-0.532 4.53,-10.012 8.97,-21.063 4.44,-11.051 16.89,-40.148 27.64,-64.648 L 2905.49,57 l 7.65,15.1797 c 9.36,18.5312 31.21,66.3903 43.46,95.1793 l 9.05,21.25 15.59,0.02 c 8.57,0 21.33,0.461 28.35,1.012 11.88,0.918 12.75,0.789 12.75,-1.981 0,-2.262 -2.73,-4.012 -11.57,-7.379 -6.36,-2.429 -12.43,-5.461 -13.48,-6.742 -1.21,-1.43 -1.78,-5.93 -1.53,-11.777 0.92,-21.532 12.95,-124.4729 15.84,-135.5823 1.6,-6.1602 4.1,-7.8281 17.32,-11.5313 7.07,-1.9765 8.88,-3.1289 8.88,-5.61715 0,-2.88281 -0.62,-3.04297 -8.11,-1.99219 C 3019.14,8.5 2976.02,8.48047 2965.4,7.01953 2957.48,5.92188 2957.18,6 2957.67,9.30859 c 0.4,2.65231 2.72,4.23051 10.16,6.92191 13.27,4.789 14.32,5.9101 14.32,15.3086 0,10.582 -13.05,124.2619 -14.42,125.6329 -0.62,0.617 -31.69,-68.7306 -49.45,-110.3829 -12.51,-29.3477 -18,-40.57816 -19.81,-40.57816 -1.68,0 -3.69,3.19922 -6.07,9.64846 -7.9,21.5625 -53.24,127.0506 -60.82,141.4996 -1.57,3 -2.29,-2.25 -4.49,-32.437 -1.44,-19.801 -3.43,-50.4415 -4.41,-68.0939 -1.7,-30.2383 -1.65,-32.2265 1,-35.1562 1.54,-1.711 3.37,-3.1133 4.05,-3.1133 0.69,0 5.1,-1.4297 9.81,-3.1992 6.46,-2.4102 8.56,-3.961 8.56,-6.28909 0,-2.85937 -0.66,-3.01172 -8.88,-1.98047 -11.6,1.44141 -42.04,1.46094 -53.34,0.01954 -8.2,-1.05079 -8.89,-0.89844 -8.89,1.91015 z m -425.14,0.03125 c 0,2.34762 1.93,3.71092 8.12,5.73052 11.15,3.6484 16.26,6.3984 18.04,9.7304 3.1,5.7891 12.7,83.6293 15.47,125.4573 1.67,25.179 1.35,25.961 -12.93,31 -7.39,2.601 -10.14,4.332 -10.14,6.351 0,2.59 1.75,2.711 27.43,1.828 15.1,-0.507 27.92,-1.359 28.5,-1.898 0.58,-0.52 7.04,-15.211 14.34,-32.641 18.5,-44.109 41.54,-95.8473 42.69,-95.8473 1.42,0 24.6,48.7263 40.44,85.0273 7.6,17.422 15.12,34.652 16.7,38.262 l 2.87,6.558 15.15,0.02 c 8.34,0 20.9,0.461 27.92,1.012 11.96,0.929 12.76,0.8 12.76,-2.032 0,-2.32 -2.88,-4.187 -12.48,-8.121 -6.87,-2.797 -12.9,-6.199 -13.42,-7.547 -2.39,-6.25 13.66,-143.9801 17.47,-149.8199 1.44,-2.2305 6,-4.543 13.06,-6.6406 8.83,-2.6407 10.83,-3.8086 10.83,-6.39847 0,-2.9414 -0.6,-3.09375 -8.12,-2.04297 -10.47,1.46094 -53.62,1.46094 -64.16,0 -7.41,-1.02734 -8.11,-0.85937 -8.11,1.90235 0,2.36719 2.53,3.95699 11.51,7.23049 6.33,2.3086 12.34,5.207 13.36,6.4375 2.09,2.5195 0.42,21.1406 -8.46,94.1286 l -5.08,41.742 -5.04,-10.82 c -13.1,-28.172 -32.89,-72.8592 -46.54,-105.1209 -11.39,-26.9297 -15.69,-35.55863 -17.72,-35.55863 -2.04,0 -5.73,7.55863 -15.44,31.69143 -11.36,28.1992 -53.25,124.0981 -53.35,122.1291 -0.03,-0.422 -1.44,-18.52 -3.14,-40.199 -1.7,-21.6801 -3.53,-52.7309 -4.08,-69.0122 l -1.01,-29.6015 4.5,-2.2695 c 2.47,-1.25 8.14,-3.4688 12.6,-4.9297 6.2,-2.0196 8.12,-3.3907 8.12,-5.73051 0,-2.82812 -0.68,-2.98828 -8.56,-2.00781 -11.56,1.4375 -44.23,1.48828 -55.21,0.07813 -8.23,-1.07032 -8.89,-0.91797 -8.89,1.92968 z M 2229.1,87.7383 c -1.74,4.0508 -8.05,19.1717 -14.01,33.6327 -5.98,14.449 -11.34,26.777 -11.92,27.41 -0.57,0.617 -5.89,-10.16 -11.82,-23.961 -5.93,-13.8 -12.67,-29.4411 -14.96,-34.7497 l -4.19,-9.6719 h 30.03 30.02 l -3.15,7.3399 z M 2108.68,8.78125 c 0,2.00785 3.28,4.45705 11,8.25005 l 10.98,5.3906 20.02,45.6172 c 31.42,71.5819 43.86,100.2109 49.71,114.3909 4.54,11 6.06,13.218 9.23,13.609 3.58,0.441 4.48,-1.23 15.7,-29.367 6.55,-16.422 22.81,-55.863 36.14,-87.672 26.76,-63.8516 22.74,-57.5312 40.85,-64.1797 5.41,-1.9883 7.35,-3.5117 7.35,-5.78905 0,-2.87109 -0.69,-3.01172 -9.96,-2.01953 -13.67,1.46875 -51.95,1.52734 -64.63,0.10937 -9.64,-1.08984 -10.44,-0.94921 -10.44,1.76954 0,2.35937 2.73,3.75777 13.91,7.09767 7.65,2.293 13.92,4.7109 13.92,5.3906 0,1.6211 -9.75,30.2422 -13.12,38.5313 l -2.68,6.5703 h -35.06 -35.05 l -4.04,-10.4297 c -4.77,-12.3125 -10.54,-30.7813 -10.54,-33.6797 0,-1.1328 1.57,-2.543 3.48,-3.1328 14.18,-4.3789 19.71,-7.2383 19.71,-10.19924 0,-2.80078 -0.65,-3.00781 -6.47,-2.02734 -8.51,1.44922 -45.07,1.46875 -53.44,0.02734 -5.76,-0.98047 -6.57,-0.76953 -6.57,1.74219 z m -272.09,0.11719 c 0,2.27346 2.99,4.08206 12.98,7.88286 7.13,2.6992 13.92,6.0585 15.07,7.457 1.69,2.0312 2.19,16.7812 2.55,75.7226 l 0.44,73.1871 -16.67,-0.078 c -9.18,-0.039 -19.12,-0.91 -22.09,-1.929 -4.93,-1.68 -5.92,-3.102 -10.96,-15.762 -4.36,-10.918 -6.27,-14.02 -8.89,-14.399 -3.31,-0.492 -3.35,-0.23 -3.35,23.95 v 24.461 h 74.98 74.98 V 164.93 c 0,-24.121 -0.04,-24.442 -3.31,-23.95 -2.59,0.379 -4.39,3.329 -8.26,13.532 -3.13,8.277 -6.27,13.929 -8.57,15.457 -2.67,1.769 -8.73,2.562 -22.74,2.961 l -19.1,0.55 0.46,-73.6909 0.46,-73.6797 3.54,-2.6602 c 1.95,-1.4687 8.73,-4.6484 15.07,-7.0703 8.87,-3.3906 11.54,-5.0976 11.54,-7.41015 0,-2.75 -0.74,-2.91016 -8.89,-1.85937 -11.45,1.46093 -58.8,1.46093 -70.34,0 -8.11,-1.03125 -8.9,-0.8711 -8.9,1.80078 z M 1687.83,110.578 c 9.46,2.82 16.99,8.75 19.89,15.692 1.16,2.769 2.11,9.832 2.11,15.671 0,14.649 -4.12,22.289 -15.49,28.707 -8.12,4.582 -9.33,4.813 -29.73,5.364 l -21.26,0.59 V 142.41 108.23 h 18.27 c 11.87,0 21.05,0.821 26.21,2.348 z M 1586.15,9 c 0,2.5195 2.34,3.8984 12.15,7.1719 20.09,6.6875 18,-2.8125 18,81.8281 0,63.328 -0.32,73.809 -2.32,75.691 -1.28,1.2 -8.06,4.071 -15.07,6.368 -9.22,3.011 -12.76,4.89 -12.76,6.761 0,2.352 4.69,2.559 55.27,2.539 58.57,-0.039 61.62,-0.339 76.25,-7.757 8,-4.051 16.22,-12.641 19.41,-20.262 2.59,-6.199 2.77,-23.531 0.33,-31.692 -2.16,-7.187 -10.44,-17.226 -18.3,-22.187 -3.15,-1.992 -9.99,-4.922 -15.21,-6.52 l -9.48,-2.9097 24.71,-37.043 c 13.58,-20.3594 26.79,-38.918 29.34,-41.25 2.56,-2.3164 7.78,-5.0078 11.6,-5.9688 4.69,-1.1797 6.96,-2.5781 6.96,-4.28122 0,-2.21875 -2.64,-2.50781 -21.68,-2.44922 L 1723.68,7.12109 1708.3,31 c -8.46,13.1406 -21.89,32.9297 -29.86,43.9883 l -14.48,20.1015 -10.41,0.461 -10.41,0.4492 0.49,-35.5703 c 0.41,-29.1602 0.91,-35.9805 2.82,-37.7695 1.27,-1.1993 8.05,-4.0586 15.06,-6.3594 10.38,-3.4024 12.76,-4.7617 12.76,-7.3008 0,-2.91016 -0.63,-3.03125 -9.66,-1.96875 -12.35,1.44922 -56.22,1.44922 -68.81,-0.01953 -9.01,-1.04297 -9.65,-0.92188 -9.65,1.98828 z m -445.24,0.03125 c 0,2.50785 2.55,3.93755 13.53,7.58985 10.14,3.3789 14.02,5.4375 15.47,8.25 3,5.7578 2.03,147.8589 -1.01,149.7379 -1.19,0.743 -7.98,3.27 -15.08,5.621 -8.89,2.961 -12.91,5.051 -12.91,6.731 0,2.168 7.46,2.43 71.12,2.43 h 71.11 V 166.59 c 0,-20.949 -0.22,-22.801 -2.78,-22.801 -2.11,0 -3.66,2.742 -6.34,11.199 -6.24,19.703 -2.79,18.16 -40.98,18.16 -32.93,0 -33.02,-0.007 -33.95,-3.468 -0.51,-1.918 -0.94,-16.18 -0.96,-31.692 l -0.01,-28.218 25.12,0.011 c 28.05,0.02 35.99,1.41 37.59,6.617 4.28,13.832 7.26,19.661 10.06,19.661 2.85,0 2.98,-1.45 2.98,-34.008 0,-32.4924 -0.13,-34.0119 -2.97,-34.0119 -2.33,0 -3.84,2.6406 -7.09,12.3828 -2.44,7.3398 -5.28,13.0078 -6.98,13.9062 -1.58,0.8516 -15.32,1.543 -30.79,1.543 h -27.92 V 61.25 c 0,-30.7383 0.3,-34.9492 2.7,-37.7187 1.49,-1.711 8.45,-4.9805 15.46,-7.25 10.34,-3.3594 12.75,-4.7422 12.75,-7.24224 0,-2.89062 -0.65,-3.01953 -10.43,-1.96093 -5.74,0.62109 -20.87,1.13281 -33.62,1.13281 -12.76,0 -27.89,-0.51172 -33.63,-1.13281 -9.77,-1.0586 -10.44,-0.92969 -10.44,1.96093 z m -123.67,0.09766 c 0,2.48049 1.75,3.67189 8.12,5.55079 4.46,1.3008 9.11,3.0117 10.33,3.7891 2.55,1.6093 5.59,-2 -41.573,49.3632 -17.469,19.0196 -31.758,35.168 -31.758,35.879 0,0.699 14.262,14.211 31.688,30.008 33.553,30.422 43.283,39.941 43.283,42.34 0,0.812 -4.52,2.992 -10.04,4.832 -7.02,2.328 -10.05,4.121 -10.05,5.929 0,2.321 3.39,2.571 35.56,2.571 31.78,0 35.55,-0.27 35.55,-2.52 0,-1.519 -1.73,-2.851 -4.39,-3.391 -12.82,-2.55 -21.97,-8.91 -57.24,-39.71 -19.73,-17.239 -35.673,-31.891 -35.431,-32.54 0.242,-0.66 19.551,-21.5191 42.921,-46.3706 42.62,-45.3086 46,-48.2578 59.17,-51.4883 2.92,-0.7227 4.25,-2.043 4.25,-4.24219 0,-3.00782 -0.57,-3.12891 -10.39,-2.07032 -13.71,1.46094 -49.91,1.5 -61.11,0.0625 -8.3,-1.08203 -8.89,-0.9414 -8.89,2.00782 z M 899.746,9.01172 c 0,2.51958 2.371,3.91018 12.395,7.23828 6.812,2.2695 13.347,5.0898 14.515,6.25 1.567,1.5703 2.426,10.1016 3.282,32.7109 1.308,34.4102 -0.243,113.9801 -2.293,117.8091 -0.735,1.371 -7.313,4.449 -14.618,6.82 -9.722,3.18 -13.281,5.031 -13.281,6.941 0,2.391 3.746,2.61 44.059,2.61 38.691,0 44.062,-0.289 44.062,-2.391 0,-1.621 -4.137,-3.73 -12.988,-6.609 -7.149,-2.332 -13.934,-5.36 -15.074,-6.75 -1.684,-2.02 -2.086,-16.59 -2.086,-75.641 0,-63.0117 0.324,-73.4492 2.32,-75.3398 1.274,-1.1993 8.059,-4.0704 15.074,-6.3594 10.375,-3.4024 12.754,-4.7617 12.754,-7.3008 0,-2.91016 -0.625,-3.03125 -9.664,-1.96094 -12.207,1.44922 -59.781,1.44141 -70.426,-0.02734 -7.382,-1.02344 -8.031,-0.86328 -8.031,2 z M 518.809,114.32 c -7.77,18.66 -14.485,34.27 -14.918,34.7 -0.606,0.609 -23.246,-49.6997 -29.618,-65.8208 -1.05,-2.6406 0.532,-2.8008 28.778,-2.8008 h 29.883 L 518.809,114.32 Z M 409.68,8.85938 c 0,2.12892 2.918,4.21092 10.808,7.72262 7.496,3.3282 11.246,5.9493 12.223,8.5274 0.781,2.039 10.613,24.539 21.859,49.9922 11.246,25.4494 27.625,62.9684 36.407,83.3784 21.086,49.02 18.964,48.719 36.425,5.09 7.246,-18.109 23.551,-57.672 36.231,-87.9294 l 23.055,-54.9922 11.984,-4.25 c 9.547,-3.3867 11.98,-4.8789 11.98,-7.34762 0,-2.90234 -0.668,-3.03125 -9.968,-2.03125 -13.555,1.44922 -51.829,1.49219 -64.625,0.08203 -9.618,-1.07031 -10.434,-0.92187 -10.434,1.77735 0,2.33199 2.816,3.80079 13.918,7.28129 7.648,2.3906 13.91,4.4609 13.91,4.6015 0,0.8789 -9.601,29.5391 -12.344,36.8399 l -3.339,8.8789 H 502.574 467.371 L 463.219,56.0508 C 459.004,45.4609 452.965,25.5 452.965,22.1484 c 0,-1.0078 1.566,-2.3203 3.48,-2.9101 14.176,-4.3789 19.711,-7.2383 19.711,-10.19924 0,-2.80078 -0.652,-3.00781 -6.472,-2.02734 -8.512,1.44922 -45.067,1.46875 -53.434,0.02734 -5.816,-0.98828 -6.57,-0.77734 -6.57,1.8125 z M 303.07,110.711 c 11.539,3.418 19.059,11.148 21.379,21.949 3.223,15.051 -1.543,29.809 -11.808,36.559 -8.032,5.269 -16.899,6.953 -37.075,6.992 l -17.39,0.039 v -34.02 -34 h 18.269 c 12.27,0 21.016,0.809 26.625,2.481 z M 200.977,9 c 0,2.5508 2.484,3.9492 13.527,7.6211 10.144,3.3789 14.012,5.4375 15.469,8.25 1.492,2.8672 1.847,20.4102 1.543,76.0699 -0.34,62.34 -0.715,72.528 -2.711,73.77 -1.278,0.777 -8.063,3.34 -15.075,5.668 -8.64,2.871 -12.753,5.012 -12.753,6.621 0,2.109 6.461,2.379 55.269,2.352 58.524,-0.032 61.66,-0.364 76.203,-7.731 8.727,-4.41 17.43,-13.812 20.184,-21.793 1.137,-3.297 2.012,-10.547 1.941,-16.117 -0.265,-20.891 -12.89,-36.191 -35.105,-42.551 l -9.934,-2.8397 26.258,-39.2187 c 26.762,-39.9805 30.246,-43.9024 40.828,-45.8828 3.516,-0.6602 5.231,-1.8399 5.231,-3.61724 0,-2.36328 -2.247,-2.63281 -21.575,-2.5625 L 338.699,7.12109 326.891,25.5898 C 313.73,46.1797 298.984,67.75 286.52,84.6484 l -8.266,11.211 h -10.039 -10.039 l 0.086,-32.0781 c 0.117,-42.1211 -0.164,-41.3594 17.304,-47.1602 11.043,-3.6719 13.528,-5.0703 13.528,-7.6211 0,-2.91016 -0.625,-3.03125 -9.66,-1.96094 C 267.117,8.48828 223.285,8.48047 210.637,7.01172 201.609,5.96875 200.977,6.08984 200.977,9 Z M 6.17969,9.05859 c 0,2.49221 2.72265,3.97271 14.55861,7.91021 8.0664,2.6914 14.957,5.9023 15.457,7.2109 0.5,1.3008 0.9102,34.8711 0.9102,74.6016 0,55.4487 -0.4492,72.8087 -1.9336,74.6987 -1.0664,1.348 -8.0196,4.418 -15.461,6.801 -9.2929,2.981 -13.53121,5.078 -13.53121,6.719 0,2.121 8.07811,2.391 71.50391,2.391 h 71.5004 l 0.004,-22.86 c 0,-21.66 -0.157,-22.84 -2.961,-22.422 -2.243,0.34 -3.985,3.61 -7.11,13.352 -2.277,7.098 -5.117,13.519 -6.312,14.277 -1.196,0.75 -16.852,1.383 -34.7933,1.391 l -32.6211,0.019 -0.9961,-12.75 c -0.5468,-7.007 -0.9961,-21.339 -1,-31.839 l -0.0117,-19.079 29.3242,0.54 c 23.57,0.421 29.738,0.98 31.473,2.851 1.187,1.27 3.773,7.008 5.754,12.75 2.66,7.731 4.32,10.43 6.398,10.43 2.621,0 2.805,-2.18 2.805,-34.121 0,-31.1917 -0.227,-34.0784 -2.61,-33.6214 -1.703,0.332 -4.172,4.8828 -7.117,13.1133 -3.394,9.4883 -5.332,12.8398 -7.828,13.5078 -1.82,0.4922 -15.664,0.8984 -30.7578,0.9101 L 63.3828,95.8594 63.5391,63.0117 C 63.6211,44.9414 64.168,28.4219 64.75,26.2891 65.6289,23.0898 68.1133,21.6289 79.2266,17.7695 103.438,9.35938 101.898,5.71094 74.9609,7.62891 56.7266,8.91016 37.1758,8.67969 16.6211,6.89844 6.95313,6.07031 6.17969,6.23047 6.17969,9.05859 Z M 1413.03,6.30078 c -19.23,5.03902 -31.22,14.76952 -39.02,31.66802 -3.43,7.4531 -3.54,9.2421 -4.29,68.7812 -0.67,52.961 -1.11,61.648 -3.28,64.93 -1.62,2.429 -6.75,5.398 -14.31,8.25 -7.99,3.031 -11.79,5.261 -11.79,6.961 0,2.238 4.45,2.5 43.29,2.5 38.84,0 43.29,-0.262 43.29,-2.5 0,-1.719 -4.13,-4.059 -13.2,-7.481 -7.89,-2.98 -14.07,-6.332 -15.38,-8.332 -2.94,-4.496 -4.91,-83.3866 -2.61,-104.8983 3.43,-32.1094 15.18,-43.9883 45.19,-45.7109 24.18,-1.379 39.87,6.7226 48.04,24.7929 3.64,8.0469 3.66,8.3594 3.6,66.0583 -0.04,42.5 -0.56,58.871 -1.93,61.352 -1.3,2.348 -5.93,4.707 -15.02,7.668 -8.96,2.922 -13.13,5.031 -13.13,6.66 -0.01,2.09 4.6,2.391 36.32,2.391 32.54,0 36.33,-0.262 36.33,-2.52 0,-1.66 -3.13,-3.691 -9.17,-5.941 -15.72,-5.879 -14.67,-1.379 -15.65,-67.059 -0.8,-53.4804 -1.09,-58.1327 -4.22,-67.5429 -5.65,-17.039 -15.27,-28.9062 -29.24,-36.0586 -14.53,-7.42966 -43.68,-9.24997 -63.82,-3.96091 z m 2187.42,8.23052 c -5.48,7.9804 -30.84,42.6093 -56.35,76.9296 l -46.38,62.4301 -0.48,-31.719 c -0.75,-47.5431 1.11,-97.0509 3.73,-99.672 1.16,-1.1602 7.69,-3.9805 14.51,-6.25 10.02,-3.3281 12.39,-4.7187 12.39,-7.23828 0,-2.86328 -0.64,-3.02344 -8.11,-1.97266 -10.44,1.44922 -48.99,1.44922 -59.53,-0.01953 -7.48,-1.03906 -8.11,-0.8789 -8.11,2 0,2.49217 2.64,4.10937 13.21,8.10937 7.27,2.7305 13.86,6.1992 14.65,7.6797 1.38,2.5703 4.55,91.0314 4.59,127.5624 0.02,20.75 -0.52,21.551 -18.39,27.777 -8.52,2.961 -12.52,5.133 -12.52,6.793 0,2.141 3.41,2.418 27.38,2.278 l 27.36,-0.168 5.55,-9.11 c 4.83,-7.941 85.92,-117.8394 90,-121.9605 1,-1.0196 1.32,17.5703 0.94,54.3715 -0.66,64.789 0.87,59.168 -18.39,67.117 -7.95,3.281 -12.25,5.922 -12.25,7.492 0,2.129 4.51,2.418 37.87,2.418 37.31,0 37.88,-0.051 37.88,-3.207 0,-2.633 -2.26,-3.992 -12.3,-7.492 -6.77,-2.352 -13.15,-5.301 -14.17,-6.539 -2.63,-3.172 -4.23,-45.243 -4.35,-114.5512 L 3619.08,0 h -4.33 c -3.72,0 -5.72,2.01953 -14.3,14.5195 z M 786.93,20.5 c -17.532,24.6289 -93.793,127.73 -96.91,131.012 -1.911,2.008 -2.161,-4.793 -1.879,-51.012 0.379,-62.668 1.175,-76.8086 4.449,-78.8789 1.277,-0.8008 7.707,-3.2695 14.301,-5.4805 9.64,-3.2304 11.98,-4.6211 11.98,-7.12888 0,-2.86328 -0.644,-3.02344 -8.117,-1.98047 -10.473,1.44922 -49.016,1.44922 -59.52,0 -7.472,-1.04297 -8.113,-0.88281 -8.113,1.98828 0,2.48047 2.731,4.17187 13.477,8.33987 12.55,4.8711 13.574,5.6094 14.793,10.5703 0.722,2.9297 1.695,36.2812 2.16,74.1213 0.98,79.449 2.773,71.168 -16.906,78.097 -8.278,2.922 -11.981,5 -11.981,6.731 0,2.23 3.074,2.492 27.039,2.351 l 27.035,-0.171 7.489,-11.418 c 4.121,-6.289 26.14,-36.481 48.941,-67.09 l 41.441,-55.6604 -0.765,55.9684 c -0.649,47.493 -1.137,56.532 -3.207,59.692 -1.516,2.308 -7.184,5.629 -14.918,8.75 -8.473,3.41 -12.469,5.847 -12.469,7.558 0,2.282 3.82,2.532 37.875,2.532 36.848,0 37.875,-0.082 37.871,-3.09 -0.004,-2.461 -2.594,-4.039 -12.738,-7.742 -9.586,-3.5 -13.168,-5.598 -14.504,-8.5 -2.508,-5.469 -5.359,-100.3793 -4.164,-138.7387 l 0.973,-31.3085812 h -4.528 c -4.047,0 -6.086,2.1875012 -19.105,20.4882812 v 0"
         style="fill:#2b59ae;fill-opacity:1;fill-rule:nonzero;stroke:none"
         id="path256" />
      <path
         d="m 3154.15,1778.91 c -7.03,4.88 -9.64,9.65 -11.86,21.73 -1.5,8.05 -2.69,10.17 -9.26,16.48 -10.35,9.93 -13.68,18.84 -11.31,30.18 2.56,12.18 8.22,23.54 15.16,30.38 10.66,10.51 45.32,25.72 53.76,23.6 4.84,-1.21 5.59,-6.46 1.14,-7.87 -4.37,-1.39 -24.58,-23.2 -33.06,-35.68 -11,-16.17 -15.28,-35.83 -9.04,-41.48 2.71,-2.46 3.64,-2.39 15.85,1.12 17.35,4.99 37.88,7.87 46.7,6.55 22.16,-3.33 45.97,-24.73 41.81,-37.6 -0.48,-1.49 -1.16,-3.66 -1.51,-4.8 -0.45,-1.48 -2.17,-0.74 -5.89,2.53 -7.47,6.56 -19.36,10.18 -30.21,9.2 -9.24,-0.84 -16.56,-3.95 -28.91,-12.29 -6.15,-4.15 -9.21,-5.12 -17.52,-5.54 -8.79,-0.45 -10.8,-0.01 -15.85,3.49 z m -406.58,-35.4 c -8.37,4.54 -7.25,14.84 3.45,31.38 18.7,28.93 70.73,70.27 94.78,75.29 9.94,2.07 22.78,9.95 30.46,18.7 5.84,6.65 5.8,8.54 -0.29,13.66 l -4.93,4.14 -19.02,-1.09 c -17.46,-1 -19.1,-0.87 -20.08,1.68 -1.52,3.95 8.14,11.9 23.44,19.28 27.46,13.24 41.57,11.97 69.66,-6.3 10.08,-6.55 29,-12.35 39.96,-12.23 3.48,0.04 13.23,1.36 21.66,2.93 18.79,3.51 23.79,2.4 41.29,-9.09 20.39,-13.4 23.97,-19.65 22.7,-39.59 -0.54,-8.69 -1.27,-10.7 -5.29,-14.72 -3.1,-3.1 -5.53,-4.32 -7.27,-3.65 -2.39,0.92 -13.43,21.71 -13.43,25.28 0,2.27 -17.85,14.49 -30.24,20.69 -25.31,12.67 -47.06,13.57 -47.06,1.95 0,-4.84 4.28,-8.8 18.67,-17.34 14.84,-8.8 17.93,-13.27 12.29,-17.82 -4.99,-4.04 -8.46,-2.96 -25.43,7.93 -14.72,9.43 -22.16,12.39 -40.8,16.28 -21.67,4.51 -31.53,2.42 -48.74,-10.32 -12.31,-9.12 -29.06,-29.85 -31.26,-38.68 -1.44,-5.77 -2.13,-6.57 -5.41,-6.13 -2.07,0.28 -9.44,0.62 -16.38,0.77 -11.75,0.26 -13.07,-0.04 -19.25,-4.37 -8.9,-6.26 -13.35,-15.46 -15.08,-31.2 -1.63,-14.9 -5.1,-21.51 -13.87,-26.43 -7.08,-3.99 -8.82,-4.11 -14.53,-1 z m 528.03,-72.07 c -7,4.26 -15.85,16.05 -25.25,33.61 -10.56,19.75 -16.23,27.1 -30.2,39.2 -14.85,12.85 -15.62,18.68 -2.24,17.01 1.27,-0.16 9.24,-2.4 17.7,-4.98 14.39,-4.39 15.97,-5.3 24.87,-14.19 15.98,-15.98 28.13,-46.27 27.23,-67.87 -0.2,-4.91 -0.77,-5.79 -3.72,-5.79 -1.91,0.01 -5.69,1.36 -8.39,3.01 z m -112.87,-114.8 c -4.74,4.85 -9.38,8.21 -11.32,8.21 -2.88,0 -3.25,-0.76 -2.81,-5.8 0.57,-6.59 0.43,-6.62 -10.98,-3.03 -11.64,3.67 -16.64,3.35 -31.34,-2.02 -13.58,-4.95 -16.69,-4.98 -16.69,-0.15 0,5.99 2.18,8.32 11.83,12.65 7.12,3.19 9.81,5.22 9.81,7.37 0,4.34 2.87,6.07 14.63,8.8 9.38,2.17 11.52,2.2 19.46,0.18 12.62,-3.2 19.28,-6.69 24.83,-13.01 4.23,-4.83 4.72,-6.32 4.04,-12.33 -0.42,-3.77 -1.37,-7.35 -2.1,-7.96 -0.73,-0.62 -4.95,2.58 -9.36,7.09 z m -39.91,-26.71 c -4.57,4.57 -4.88,8.57 -1.05,13.3 3.41,4.21 8.41,3.17 12.15,-2.52 2.93,-4.49 1.16,-10.13 -4.07,-12.93 -2.63,-1.41 -3.83,-1.05 -7.03,2.15 z m 193.48,-46.18 c -12.06,3.01 -28.82,11.98 -38.31,20.52 -20.06,18.03 -36.33,54.64 -32.4,72.92 4.02,18.78 15.66,39.99 24.92,45.43 10.01,5.88 26.79,-1.55 34.95,-15.47 5.73,-9.78 4.15,-13.77 -6.9,-17.49 -15.86,-5.34 -26.94,-20.85 -27.11,-37.95 -0.12,-11.09 2.99,-18.3 11.65,-26.95 18.97,-18.98 43.98,-18.35 59.79,1.51 12.58,15.79 16.79,16.11 24.61,1.84 3.65,-6.68 5.55,-12.45 6.11,-18.65 0.81,-8.98 0.81,-8.98 -5.59,-14.47 -11.93,-10.2 -35.41,-15.3 -51.72,-11.24 z m -642.57,-53.96 c -4.94,3.51 -7.04,6.09 -11.04,13.62 -2.66,5 -3.11,7.92 -2.48,16.23 0.43,5.57 2.12,13.96 3.76,18.63 2.56,7.3 3.61,8.58 7.34,9.02 5.83,0.68 6.88,-0.72 8.6,-11.45 1.09,-6.79 2.5,-10.07 5.46,-12.64 8.05,-7.01 18.34,-3.57 30.09,10.07 l 6.61,7.68 5.98,-2.34 c 4.38,-1.73 5.97,-3.25 5.97,-5.71 0,-1.9 -5.85,-10.67 -13.52,-20.25 -10.45,-13.04 -15.25,-17.74 -21.04,-20.61 -9.97,-4.94 -20.62,-5.87 -25.73,-2.25 z m 389.58,-52.12 c 0,1.85 1.11,5.52 2.47,8.15 1.92,3.7 2.24,7.04 1.42,14.72 l -1.07,9.93 4.4,-2.27 c 9.46,-4.9 13.12,-13.86 9.34,-22.91 -2.68,-6.41 -5.41,-8.75 -11.69,-10 -4.26,-0.86 -4.87,-0.56 -4.87,2.38 z m 33.77,-326.32 c -9.89,6.36 -19.26,15.04 -24.61,22.83 -8.41,12.21 -27.95,51.44 -27.44,55.06 0.58,4.03 4.35,5.45 28.02,10.55 30.3,6.54 79.47,34.92 105.53,60.92 15.72,15.68 23.81,27.17 30.47,43.24 5.14,12.38 7.6,15.61 10.92,14.34 2.76,-1.06 4.36,-8.4 9.61,-44.38 4.79,-32.72 5.04,-41.73 1.48,-52.67 -6.63,-20.38 -27.16,-53.94 -43.81,-71.6 -7.33,-7.76 -34.04,-25.28 -52.57,-34.48 -19.14,-9.5 -27.43,-10.34 -37.6,-3.81 z m -253.16,497.45 c -3.55,4.5 -3.2,8.28 1.64,17.94 6.98,13.93 19.13,23.03 34.45,25.82 13.14,2.38 19.28,2.08 29.62,-1.47 17.59,-6.02 28.46,-15.99 28.46,-26.09 0,-5.79 -0.78,-5.88 -8.06,-0.93 -3.5,2.38 -7.86,3.87 -11.32,3.87 h -5.63 l 1.04,-6.18 1.06,-6.19 -7.48,-0.02 c -4.13,0 -11.31,-1.04 -15.99,-2.29 -4.68,-1.26 -8.67,-2.3 -8.89,-2.3 -0.21,-0.02 -0.39,2.41 -0.39,5.39 0,5.04 -0.33,5.41 -4.88,5.41 -3.81,0 -6.85,-1.87 -13.8,-8.5 -10.21,-9.74 -14.85,-10.79 -19.83,-4.46 z m 63.03,-19.48 c -6.19,3.62 -4.49,15.85 2.45,17.59 6.09,1.53 10.14,-1.38 10.14,-7.28 0,-9.2 -6.03,-14.14 -12.59,-10.31 z m 87.86,-91.22 c 2.71,7.92 2.47,15.45 -1.25,37.86 l -3.33,20.09 4.64,22.11 c 4.35,20.7 4.51,22.72 2.63,31.72 -3.05,14.55 -4.28,16.81 -13.9,25.6 -17.3,15.82 -39.27,28.73 -54.31,31.91 -34.58,7.34 -74.1,-2.76 -93.69,-23.93 -10.27,-11.08 -15.07,-22.46 -16.18,-38.37 l -0.79,-11.25 6.74,-6.22 c 6.22,-5.74 7.31,-6.18 14.42,-5.75 l 7.69,0.46 4.92,-10.04 c 6.34,-12.93 10.95,-17.15 19.77,-18.15 5.96,-0.67 7.5,-0.23 10.92,3.2 4.49,4.48 5.22,8.76 1.52,8.76 -7.62,0 -17.63,15.3 -15.52,23.72 1.5,5.94 9.58,13.7 13.68,13.11 3.32,-0.47 3.5,-1.09 3.03,-10.55 -0.49,-9.62 -0.27,-10.32 5.06,-16.52 6.61,-7.69 20.28,-13.61 28.08,-12.15 6.24,1.18 17.95,11.45 21.46,18.82 1.9,4.03 2.45,7.8 1.85,12.88 -1.17,9.86 0.28,11.86 6.31,8.74 2.59,-1.33 6.15,-4.26 7.9,-6.48 2.96,-3.77 3.02,-4.42 0.89,-9.53 -1.26,-3.01 -4.75,-8.91 -7.77,-13.11 -6.43,-8.95 -5.41,-12.02 3.99,-12.02 4.73,0 7.29,1.31 13.57,6.96 10.86,9.76 13.24,9.39 12.4,-1.93 -0.52,-7.07 -2.01,-11.12 -7.25,-19.72 -5.86,-9.61 -6.51,-11.57 -5.73,-17.53 1.65,-12.6 18.38,-39.62 23.88,-38.57 1.4,0.27 3.36,2.92 4.37,5.88 z m -46.92,-390.45 c -6.97,3.04 -28.57,18.23 -43.14,30.35 -27.98,23.27 -53.59,57.8 -73,98.43 -10.08,21.1 -10.5,30.45 -2.7,60.05 3.13,11.82 8.42,29.42 11.77,39.11 l 6.09,17.61 -7.59,16.4 c -13.22,28.51 -22.19,62.76 -21.49,82.03 0.65,17.82 -3.24,19.96 -12.59,6.94 -6.85,-9.54 -8.84,-10.3 -17.3,-6.65 -8.44,3.65 -11.52,9.11 -13.71,24.22 -3.5,24.18 -1.27,33.18 9.84,39.68 3.87,2.27 8.61,6.65 10.51,9.74 4.14,6.71 4.2,8.87 2.26,83.83 -1.02,39.07 -0.89,53.49 0.51,58.74 1.02,3.83 6.61,17.4 12.4,30.15 12.93,28.44 14.54,34.11 13.2,46.61 -1.27,11.87 1.5,36.3 5.66,49.91 10.7,34.95 36.14,59.61 69.33,67.21 13.97,3.2 57.01,7.84 71.84,7.74 10.86,-0.07 15.49,-1.15 38.1,-8.87 29.43,-10.04 31.6,-10.24 70.43,-6.5 19.74,1.89 24.6,1.93 30.33,0.2 13.51,-4.06 29.82,-18.59 36.59,-32.6 5.83,-12.03 6.61,-23.03 3.12,-44.36 -1.71,-10.48 -3.11,-20.83 -3.11,-23.02 0,-8.51 5.16,-20.47 15.74,-36.51 14.51,-21.99 18.26,-30.24 18.18,-39.91 -0.08,-8.67 -4.08,-20.54 -7.7,-22.81 -1.73,-1.09 -4.42,-0.19 -10.03,3.36 -18.3,11.61 -42.46,14.63 -64.11,8.04 -15.92,-4.85 -37.61,-15.71 -48.46,-24.26 -10.7,-8.42 -14.19,-15.26 -16.57,-32.39 -1.98,-14.21 -1.22,-21.36 5.06,-47.11 4.25,-17.4 4.62,-20.87 3.74,-34.78 -3.13,-49.69 -3.15,-47.54 0.47,-62.2 2.83,-11.46 3.15,-14.97 1.77,-20.07 -3.41,-12.65 -16.1,-19.85 -26.99,-15.31 -6.01,2.51 -7.79,5.17 -9.39,14.04 -2.09,11.53 -8.89,20.93 -15.14,20.92 -2.02,0 -7.46,-3.56 -13,-8.51 -5.24,-4.67 -9.91,-8.49 -10.4,-8.49 -0.48,0 -1.97,2.12 -3.31,4.73 -2.07,3.99 -3.22,4.65 -7.38,4.25 -3.66,-0.36 -5.47,-1.62 -7.05,-4.93 -3.15,-6.6 -0.21,-14.61 8.2,-22.36 9.51,-8.76 13.17,-9.36 27.07,-4.4 10.5,3.74 11.82,3.9 15.05,1.79 1.94,-1.27 5.04,-5.26 6.87,-8.86 5.87,-11.5 12.77,-14.22 20.71,-8.16 6.1,4.65 11.12,4.91 27.83,1.46 14.23,-2.95 17.4,-2 23.03,6.94 2.13,3.37 5.73,7.4 7.98,8.95 6.48,4.43 12.97,11.58 16.22,17.86 2.46,4.73 2.74,6.91 1.55,12.24 -0.81,3.56 -2.73,8.04 -4.27,9.95 -12.77,15.79 -11.74,13.03 -13.09,35.14 -0.68,11.21 -2.57,26.29 -4.18,33.52 -3.29,14.75 -2.62,17 5.02,17 5.79,0 11.75,3.77 11.75,7.44 0,1.44 -4.63,6.81 -10.29,11.95 -9.01,8.16 -10.18,9.84 -9.29,13.36 0.63,2.52 3.8,5.81 8.5,8.82 10.59,6.8 12.63,6.45 12.63,-2.21 0,-22.2 23.58,-35.75 41.95,-24.1 8.17,5.19 14.01,15.83 14.29,26.09 0.21,7.19 1.43,7.87 7.19,4.03 8.58,-5.72 9.57,-10.14 4.43,-19.89 -3.4,-6.48 -11.27,-15.52 -15.45,-17.81 -1.37,-0.75 -7.53,-2.41 -13.71,-3.7 -16.56,-3.45 -19.92,-7.49 -10.1,-12.16 6.3,-3.01 6.39,-3.44 2.32,-9.59 -4.03,-6.1 -3.9,-10.31 0.48,-14.42 4.97,-4.66 9.77,-4.22 22.11,2.05 10.88,5.53 16.65,10.09 24.18,19.11 3.7,4.44 4.25,6.41 4.25,15.46 0,10.48 4.55,23.29 8.72,24.56 3.93,1.19 9.83,-6.52 11.37,-14.9 2.56,-13.82 1.78,-23.54 -3.3,-41.26 -4.27,-14.9 -4.99,-20.25 -6.07,-45.49 -0.77,-18.14 -2.15,-31.98 -3.77,-37.87 -5.01,-18.26 -32.28,-65.2 -47.68,-82.09 l -9.02,-9.9 h -9.82 c -12.01,0 -14.64,2.67 -14.64,14.81 0,9.23 -4.95,18.13 -10.55,18.93 -1.92,0.28 -8.07,-1.63 -13.65,-4.25 -5.59,-2.61 -11.3,-4.75 -12.69,-4.74 -1.39,0 -6.71,2.78 -11.8,6.17 -16.17,10.76 -22.97,10.3 -35.54,-2.36 -11.18,-11.27 -13.88,-11.2 -25.29,0.7 -12.96,13.48 -19.33,14.12 -31.95,3.2 -8.51,-7.37 -13.08,-7.81 -23.92,-2.32 -9.43,4.77 -14.06,3.52 -18.29,-4.95 -5.05,-10.06 -5.21,-13.24 -0.83,-16.47 3.86,-2.85 3.93,-2.84 10.58,1.94 3.68,2.64 7.1,4.81 7.6,4.81 0.5,0 5.16,-3.14 10.35,-6.97 5.2,-3.82 10.91,-6.95 12.7,-6.95 1.78,0 8.64,1.91 15.24,4.25 11.94,4.23 12.01,4.23 19.59,1.54 10.67,-3.79 16.96,-3.39 30.38,1.94 6.42,2.55 13.92,4.62 16.66,4.61 6.93,-0.05 17.36,-5.11 20.55,-9.96 5.64,-8.62 -3.11,-22 -16.8,-25.7 -5.62,-1.52 -9.18,-1.15 -26.41,2.73 -16.44,3.71 -21.72,4.3 -30.22,3.4 -24.04,-2.57 -30.83,-13.67 -13.25,-21.67 7.68,-3.5 13.32,-3.56 30.72,-0.36 11.02,2.01 15.68,2.19 23.67,0.86 21.01,-3.48 29.87,-11.45 29.87,-26.9 0,-10.74 -4.84,-20.29 -13.72,-27.07 -10.93,-8.36 -18.45,-9.7 -54.24,-9.7 h -31.85 l -10.78,5.23 c -18.77,9.11 -46.97,30.92 -81.38,62.91 -24.07,22.4 -26.62,20.83 -12.76,-7.85 12.73,-26.36 25.94,-45.22 42.93,-61.29 35.86,-33.94 64.25,-48.06 103.6,-51.54 9.24,-0.81 17.77,-2.28 18.95,-3.26 5.21,-4.34 1.19,-15.06 -13.81,-36.75 -10.11,-14.62 -35.9,-41.72 -45.66,-47.99 -8.15,-5.23 -12.37,-5.77 -19.8,-2.54 z m -1.46,-73.548 c -49.67,18.25 -80.98,56.118 -105.72,127.868 -6.93,20.1 -7.64,25.37 -3.44,25.37 1.75,0 8.9,-8.28 19.67,-22.8 28.39,-38.25 47.02,-55.71 74.57,-69.91 9.96,-5.13 13.98,-8.24 18.4,-14.27 8.04,-10.95 19.09,-33.051 19.09,-38.161 0,-9.129 -10.01,-12.719 -22.57,-8.097 z m 193.18,-10.012 c -10.8,4.859 -23.74,20.371 -23.74,28.453 0,4.629 4.47,7.457 18.55,11.727 7.23,2.19 17.67,6.61 23.2,9.81 22.15,12.83 56.01,53.42 64.83,77.71 4.26,11.73 6.56,14.72 10.25,13.31 2.35,-0.9 2.55,-2.84 1.82,-16.83 -0.53,-10.16 -2.02,-19.39 -4.18,-25.86 -9.71,-29.02 -44.94,-78.191 -66.82,-93.262 -9.64,-6.628 -16.97,-8.179 -23.91,-5.058 z m -127.64,-2.192 c -16.19,4.891 -33.69,35.899 -33.69,59.702 0,19.21 9.46,24.74 30.15,17.62 14.51,-4.99 20.36,-3.83 24.91,4.98 2.03,3.93 2.31,7.37 1.48,17.66 -0.83,10.22 -0.53,13.75 1.45,17.59 5.38,10.39 14.43,1.2 15.82,-16.06 1.23,-15.36 -7.27,-39.56 -15.87,-45.2 -3.33,-2.18 -4.83,-2.27 -10.6,-0.66 -8.4,2.35 -12.9,0.35 -22.4,-9.95 -8.52,-9.252 -8.15,-12.701 1.89,-17.678 6.4,-3.172 9.87,-3.73 23.86,-3.863 l 16.38,-0.148 3.61,5.308 c 1.99,2.926 4.71,9.181 6.06,13.921 3.76,13.18 7.49,18.31 14.73,20.26 7.23,1.95 7.07,2.09 16,-14.44 6.61,-12.221 6.41,-15.245 -1.58,-24.088 -9.01,-9.981 -29.02,-18.93 -53.64,-24.012 -13.21,-2.719 -12.7,-2.692 -18.56,-0.942 z m -155.61,-0.468 c -4.04,2.019 -10.2,10.148 -27.22,35.949 -27.98,42.371 -50.23,78.631 -59.96,97.691 -6.45,12.63 -7.35,15.43 -5.88,18.19 0.97,1.79 2.63,3.26 3.71,3.26 3.09,0 10.93,-9.06 18.07,-20.87 3.6,-5.95 11.22,-17.77 16.93,-26.28 5.71,-8.5 17.8,-26.59 26.88,-40.19 9.07,-13.61 22.43,-32.86 29.68,-42.782 8.25,-11.257 13.31,-19.668 13.51,-22.41 0.27,-3.968 -0.2,-4.418 -5.11,-4.769 -2.98,-0.219 -7.75,0.781 -10.61,2.211 v 0"
         style="fill:#ffffff;fill-opacity:1;fill-rule:nonzero;stroke:none"
         id="path258" />
    </g>
  </g>
</svg>
