<?xml version="1.0" encoding="UTF-8" standalone="no"?>
<!DOCTYPE svg PUBLIC "-//W3C//DTD SVG 1.1//EN" "http://www.w3.org/Graphics/SVG/1.1/DTD/svg11.dtd">
<svg xmlns="http://www.w3.org/2000/svg" xmlns:xlink="http://www.w3.org/1999/xlink" version="1.1" width="46.76pt" height="41.23pt" viewBox="0 0 46.76 41.23">
<g enable-background="new">
<path transform="matrix(.1,0,0,-.1,0,41.23)" stroke-width="9.96264" stroke-linecap="butt" stroke-miterlimit="10" stroke-linejoin="miter" fill="none" stroke="#231f20" d="M 233.77 205.848 L 233.77 6.59766 "/>
<path transform="matrix(.1,0,0,-.1,0,41.23)" stroke-width="9.96264" stroke-linecap="butt" stroke-miterlimit="10" stroke-linejoin="miter" fill="none" stroke="#231f20" d="M 233.77 405.102 L 233.77 205.848 "/>
<path transform="matrix(.1,0,0,-.1,0,41.23)" d="M 233.77 336.609 L 208.863 274.344 L 233.77 286.797 L 258.676 274.344 Z " fill="#231f20"/>
<path transform="matrix(.1,0,0,-.1,0,41.23)" stroke-width="9.96264" stroke-linecap="butt" stroke-miterlimit="10" stroke-linejoin="miter" fill="none" stroke="#231f20" d="M 213.844 205.848 L 213.844 405.102 "/>
<path transform="matrix(.1,0,0,-.1,0,41.23)" stroke-width="9.96264" stroke-linecap="butt" stroke-miterlimit="10" stroke-linejoin="miter" fill="none" stroke="#231f20" d="M 213.844 6.59766 L 213.844 205.848 "/>
<path transform="matrix(.1,0,0,-.1,0,41.23)" d="M 213.844 75.0898 L 238.75 137.355 L 213.844 124.902 L 188.938 137.355 Z " fill="#231f20"/>
<path transform="matrix(.1,0,0,-.1,0,41.23)" stroke-width="9.96264" stroke-linecap="butt" stroke-miterlimit="10" stroke-linejoin="miter" fill="none" stroke="#231f20" d="M 269.867 71.125 C 277.961 73.293 284.672 53.168 262.82 49.1172 C 244.27 45.6797 235.789 51.4414 233.77 56.4102 "/>
<path transform="matrix(.1,0,0,-.1,0,41.23)" stroke-width="9.96264" stroke-linecap="butt" stroke-miterlimit="10" stroke-linejoin="miter" fill="none" stroke="#231f20" d="M 269.867 71.125 C 261.777 68.957 266.309 46.793 294.77 58.582 C 323.23 70.3711 310.766 89.25 303.508 85.0586 C 296.254 80.8711 306.367 60.6328 330.809 79.3867 C 355.246 98.1406 338.32 113.148 332.395 107.223 C 326.469 101.301 341.48 84.3711 360.23 108.813 C 378.984 133.25 358.75 143.367 354.559 136.109 C 350.371 128.855 369.25 116.391 381.039 144.848 C 392.828 173.309 370.664 177.844 368.492 169.75 C 366.324 161.656 387.789 154.504 391.809 185.043 C 395.828 215.586 373.246 214.227 373.246 205.848 C 373.246 197.473 395.828 196.113 391.809 226.656 C 387.789 257.195 366.324 250.043 368.492 241.949 C 370.664 233.855 392.828 238.391 381.039 266.852 C 369.25 295.309 350.371 282.844 354.559 275.59 C 358.75 268.332 378.984 278.449 360.23 302.887 C 341.48 327.328 326.469 310.398 332.395 304.477 C 338.32 298.551 355.246 313.559 330.809 332.313 C 306.367 351.066 296.254 330.828 303.508 326.641 C 310.766 322.449 323.23 341.328 294.77 353.117 C 266.309 364.906 261.777 342.742 269.867 340.574 C 277.961 338.406 284.672 358.531 262.82 362.582 C 244.27 366.02 235.789 360.258 233.77 355.289 "/>
<path transform="matrix(.1,0,0,-.1,0,41.23)" stroke-width="9.96264" stroke-linecap="butt" stroke-miterlimit="10" stroke-linejoin="miter" fill="none" stroke="#231f20" d="M 190.188 340.852 C 182.918 337.996 172.313 357.688 194.074 362.91 C 211.418 367.074 218.957 360.105 220.355 355.004 "/>
<path transform="matrix(.1,0,0,-.1,0,41.23)" stroke-width="9.96264" stroke-linecap="butt" stroke-miterlimit="10" stroke-linejoin="miter" fill="none" stroke="#231f20" d="M 190.188 340.852 C 197.453 343.703 191.188 367.844 165.707 350.238 C 140.223 332.633 160.59 318.23 165.828 324.02 C 171.066 329.809 154.711 348.641 139.727 321.531 C 124.746 294.426 149.395 290.59 151.508 298.109 C 153.621 305.625 130.594 315.207 129.242 284.262 C 127.891 253.32 151.668 260.859 150.215 268.531 C 148.766 276.203 123.879 274.531 136.441 246.223 C 149.004 217.914 166.938 235.246 162.223 241.469 C 157.508 247.691 135.969 235.121 159.816 215.359 C 183.668 195.602 192.016 219.105 185.023 222.578 C 178.031 226.055 165.75 207.363 186.973 200.262 C 203.887 194.605 212.008 200.891 213.844 205.848 "/>
<path transform="matrix(.1,0,0,-.1,0,41.23)" stroke-width="9.96264" stroke-linecap="butt" stroke-miterlimit="10" stroke-linejoin="miter" fill="none" stroke="#231f20" d="M 142.434 80.7734 C 147.406 88.2305 130.828 99.2852 119.875 82.8594 C 110.91 69.4102 111.07 60.668 114.219 56.4102 "/>
<path transform="matrix(.1,0,0,-.1,0,41.23)" stroke-width="9.96264" stroke-linecap="butt" stroke-miterlimit="10" stroke-linejoin="miter" fill="none" stroke="#231f20" d="M 142.434 80.7734 C 137.461 73.3125 120.879 84.3633 135.816 106.77 C 150.754 129.172 167.332 118.121 162.359 110.66 C 157.383 103.199 140.805 114.25 155.742 136.656 C 170.68 159.059 187.258 148.008 182.285 140.547 C 177.309 133.086 160.73 144.141 175.668 166.543 C 190.602 188.949 207.184 177.895 202.207 170.434 C 197.234 162.977 180.656 174.027 191.605 190.453 C 200.574 203.902 208.703 207.117 213.844 205.848 "/>
</g>
</svg>
