<?xml version="1.0" encoding="UTF-8" standalone="no"?>
<!-- Created with Inkscape (http://www.inkscape.org/) -->

<svg
   version="1.1"
   id="svg9"
   width="171.75999"
   height="185.33333"
   viewBox="0 0 171.75999 185.33333"
   sodipodi:docname="logo_aec_black.svg"
   inkscape:version="1.2.1 (9c6d41e, 2022-07-14)"
   xmlns:inkscape="http://www.inkscape.org/namespaces/inkscape"
   xmlns:sodipodi="http://sodipodi.sourceforge.net/DTD/sodipodi-0.dtd"
   xmlns="http://www.w3.org/2000/svg"
   xmlns:svg="http://www.w3.org/2000/svg">
  <defs
     id="defs13">
    <clipPath
       clipPathUnits="userSpaceOnUse"
       id="clipPath27">
      <path
         d="M 0,336 V 1390 H 1288 V 336 Z"
         id="path25" />
    </clipPath>
  </defs>
  <sodipodi:namedview
     id="namedview11"
     pagecolor="#ffffff"
     bordercolor="#000000"
     borderopacity="0.25"
     inkscape:showpageshadow="2"
     inkscape:pageopacity="0.0"
     inkscape:pagecheckerboard="0"
     inkscape:deskcolor="#d1d1d1"
     showgrid="false"
     inkscape:zoom="1.2733813"
     inkscape:cx="85.991522"
     inkscape:cy="92.666663"
     inkscape:window-width="1309"
     inkscape:window-height="456"
     inkscape:window-x="0"
     inkscape:window-y="37"
     inkscape:window-maximized="0"
     inkscape:current-layer="g17">
    <inkscape:page
       x="0"
       y="0"
       id="page15"
       width="171.75999"
       height="185.33333" />
  </sodipodi:namedview>
  <g
     id="g17"
     inkscape:groupmode="layer"
     inkscape:label="Page 1"
     transform="matrix(1.3333333,0,0,-1.3333333,0,185.33333)">
    <g
       id="g19"
       transform="scale(0.1)">
      <g
         id="g21">
        <g
           id="g23"
           clip-path="url(#clipPath27)">
          <path
             d="m 81.0508,1055.28 c -4.961,-22.32 -9.3008,-43.37 -9.3008,-51.43 0,-16.116 14.2617,-19.823 26.6406,-19.823 10.5504,0 23.5504,8.047 32.2304,13.629 27.891,17.974 40.891,52.044 48.328,83.044 l 31.59,132.59 h 64.453 l -41.519,-181.54 c -4.344,-18.59 -6.821,-32.844 -6.192,-37.184 0.629,-6.199 6.821,-9.921 12.379,-9.921 22.32,0 49.59,51.445 57.629,69.405 l 13.641,-7.43 c -16.11,-41.52 -50.2,-87.983 -97.91,-87.983 -37.168,0 -47.09,23.551 -46.457,59.483 -26.641,-33.475 -58.243,-59.483 -101.6216,-59.483 -29.1211,0 -55.15234,9.91 -55.15234,44.613 0,8.68 3.72264,28.51 8.06254,48.32 L 49.4492,1197.8 H 0.5 l 4.33984,15.5 H 61.8398 c 19.211,0 37.8008,2.48 57.0002,2.48 L 81.0508,1055.3"
             style="fill:#221e1f;fill-opacity:1;fill-rule:nonzero;stroke:none"
             id="path29" />
          <path
             d="m 363.492,1241.02 c 27.988,0 43.867,19.69 43.867,48.39 0,19.45 -8.769,30.61 -23.007,30.61 -6.641,0 -21.352,-4.51 -22.75,-13.54 l -9.262,-65.46 z m 0.699,85.16 0.469,-0.48 c 8.781,8.78 15.903,11.85 25.86,11.85 22.3,0 37.472,-19.91 37.472,-48.61 0,-28.48 -15.652,-64.52 -69.25,-64.52 -10.191,0 -22.062,0.71 -28.222,1.65 l 22.062,163.44 h 20.641 l -9.024,-63.33"
             style="fill:#221e1f;fill-opacity:1;fill-rule:nonzero;stroke:none"
             id="path31" />
          <path
             d="M 2.00391,694.473 H 1287.7539 v 12.7539 H 2.00391 Z"
             style="fill:#221e1f;fill-opacity:1;fill-rule:nonzero;stroke:none"
             id="path33" />
          <path
             d="m 15.5391,601.016 c 9.4336,0 14.8007,6.64 14.8007,16.332 0,6.547 -2.9609,10.308 -7.7695,10.308 -2.2383,0 -7.1992,-1.519 -7.6797,-4.558 l -3.1211,-22.082 z m 0.2304,28.718 0.1602,-0.148 c 2.9726,2.961 5.3594,4 8.7226,4 7.5274,0 12.6485,-6.731 12.6485,-16.398 0,-9.602 -5.2813,-21.762 -23.3594,-21.762 -3.4414,0 -7.4414,0.23 -9.53124,0.551 l 7.44144,55.128 h 6.9609 l -3.043,-21.371"
             style="fill:#221e1f;fill-opacity:1;fill-rule:nonzero;stroke:none"
             id="path35" />
          <path
             d="m 55.3711,517.746 c 0,-15.289 -9.9219,-22.18 -24.4805,-22.18 -14.5586,0 -24.46872,6.891 -24.46872,22.18 v 34.641 H 21.2891 v -32.16 c 0,-7.36 2,-13.61 9.6015,-13.61 7.6016,0 9.6016,6.238 9.6016,13.61 v 32.16 h 14.8789 v -34.641"
             style="fill:#221e1f;fill-opacity:1;fill-rule:nonzero;stroke:none"
             id="path37" />
          <path
             d="m 75.3203,552.387 h 18.961 L 113.16,514.465 h 0.172 l -0.25,37.922 h 13.609 v -55.84 h -18.492 l -19.5193,38.16 H 88.5195 L 89,496.547 H 75.3203 v 55.84"
             style="fill:#221e1f;fill-opacity:1;fill-rule:nonzero;stroke:none"
             id="path39" />
          <path
             d="m 148.867,496.535 h 14.8828 v 55.8398 H 148.867 Z"
             style="fill:#221e1f;fill-opacity:1;fill-rule:nonzero;stroke:none"
             id="path41" />
          <path
             d="m 179.109,552.387 h 15.84 l 12.391,-43.84 h 0.16 l 12.48,43.84 h 15.27 l -19.039,-55.84 h -18.398 l -18.711,55.84"
             style="fill:#221e1f;fill-opacity:1;fill-rule:nonzero;stroke:none"
             id="path43" />
          <path
             d="m 250.32,552.387 h 39.379 v -10.571 h -24.488 v -11.5 h 23.129 v -10.582 h -23.129 v -12.617 h 25.359 v -10.562 h -40.25 v 55.84"
             style="fill:#221e1f;fill-opacity:1;fill-rule:nonzero;stroke:none"
             id="path45" />
          <path
             d="m 323.859,529.176 h 3.911 c 4.8,0 10.89,0.172 10.89,6.48 0,5.199 -5.211,6.149 -10.89,6.149 h -3.911 v -12.637 z m -14.879,23.211 h 26.559 c 9.902,0 17.992,-4.481 17.992,-14.09 0,-7.43 -3.531,-12.391 -10.711,-14.07 v -0.161 c 4.789,-1.281 5.11,-5.519 7.922,-12.32 l 5.43,-15.199 H 340.66 l -3.211,10.078 c -3.039,9.59 -4.957,12 -10.469,12 h -3.121 V 496.547 H 308.98 v 55.84"
             style="fill:#221e1f;fill-opacity:1;fill-rule:nonzero;stroke:none"
             id="path47" />
          <path
             d="m 373,510.305 c 3.852,-2.078 9.199,-3.68 15.352,-3.68 4.73,0 9.218,0.961 9.218,5.43 0,10.402 -26.41,3.851 -26.41,24.16 0,13.453 13.129,17.133 24.32,17.133 5.352,0 10.629,-0.801 14.391,-2.082 l -0.949,-11.539 c -3.84,1.781 -8.18,2.578 -12.402,2.578 -3.758,0 -10,-0.321 -10,-5.2 0,-9.05 26.39,-2.968 26.39,-23.121 0,-14.476 -12.168,-18.418 -24.57,-18.418 -5.188,0 -11.68,0.801 -16.617,2.411 l 1.269,12.32"
             style="fill:#221e1f;fill-opacity:1;fill-rule:nonzero;stroke:none"
             id="path49" />
          <path
             d="m 431.848,496.535 h 14.875 v 55.8398 h -14.875 z"
             style="fill:#221e1f;fill-opacity:1;fill-rule:nonzero;stroke:none"
             id="path51" />
          <path
             d="m 474.371,541.336 h -13.769 v 11.039 h 42.39 V 541.336 H 489.23 v -44.801 h -14.859 v 44.801"
             style="fill:#221e1f;fill-opacity:1;fill-rule:nonzero;stroke:none"
             id="path53" />
          <path
             d="m 543.43,566.855 h 11.531 V 555.348 H 543.43 Z m -3.59,-26 h -0.168 l -7.18,-21.839 h 13.988 z m -14.649,26 h 11.52 v -11.507 h -11.52 z m 5.52,-14.48 h 18.238 l 21.524,-55.84 h -16.321 l -4.16,11.922 h -20.961 l -4.39,-11.922 H 509.52 l 21.191,55.84"
             style="fill:#221e1f;fill-opacity:1;fill-rule:nonzero;stroke:none"
             id="path55" />
          <path
             d="m 590.973,541.336 h -13.75 v 11.039 h 42.398 v -11.039 h -13.75 v -44.801 h -14.898 v 44.801"
             style="fill:#221e1f;fill-opacity:1;fill-rule:nonzero;stroke:none"
             id="path57" />
          <path
             d="m 21.6914,407.098 h 4.3906 c 5.4493,0 11.1289,0.808 11.1289,6.488 0,6.07 -5.8398,6.641 -10.9609,6.641 h -4.5586 z m 0,23.207 h 4.1602 c 4.8789,0 9.9179,1.203 9.9179,5.91 0,5.133 -4.7968,5.601 -9.7695,5.601 h -4.3203 v -11.5 z M 6.8125,452.387 h 25.6797 c 10.3867,0 18.1601,-4.563 18.1601,-14.16 0,-7.039 -3.6132,-10.961 -9.8398,-13.051 v -0.16 c 7.4375,-1.52 11.2773,-5.508 11.2773,-12.309 0,-13.371 -11.7695,-16.16 -21.7695,-16.16 H 6.80078 v 55.84"
             style="fill:#221e1f;fill-opacity:1;fill-rule:nonzero;stroke:none"
             id="path59" />
          <path
             d="M 68.8711,452.387 H 108.242 V 441.816 H 83.7617 v -11.5 H 106.879 V 419.758 H 83.7617 v -12.653 h 25.3593 v -10.55 H 68.8711 v 55.84"
             style="fill:#221e1f;fill-opacity:1;fill-rule:nonzero;stroke:none"
             id="path61" />
          <path
             d="m 143.449,429.176 h 3.93 c 4.801,0 10.883,0.16 10.883,6.48 0,5.199 -5.199,6.141 -10.883,6.141 h -3.93 v -12.629 z m -14.879,23.211 h 26.559 c 9.922,0 18.012,-4.481 18.012,-14.082 0,-7.438 -3.52,-12.399 -10.719,-14.078 v -0.161 c 4.801,-1.281 5.117,-5.519 7.918,-12.332 l 5.441,-15.187 H 160.25 l -3.187,10.07 c -3.043,9.598 -4.961,12.008 -10.481,12.008 h -3.121 v -22.078 h -14.879 v 55.84"
             style="fill:#221e1f;fill-opacity:1;fill-rule:nonzero;stroke:none"
             id="path63" />
          <path
             d="m 192.34,452.387 h 18.949 l 18.883,-37.922 h 0.16 l -0.23,37.922 h 13.589 v -55.84 h -18.48 l -19.512,38.148 h -0.16 l 0.481,-38.148 h -13.668 v 55.84"
             style="fill:#221e1f;fill-opacity:1;fill-rule:nonzero;stroke:none"
             id="path65" />
        </g>
      </g>
      <path
         d="m 35.6914,241.746 h -0.1601 l -7.1915,-21.82 H 42.332 Z m -9.1211,11.52 H 44.8008 L 66.3125,197.457 H 49.9922 l -4.1524,11.91 H 24.8906 l -4.3984,-11.91 H 5.37891 l 21.19139,55.809"
         style="fill:#221e1f;fill-opacity:1;fill-rule:nonzero;stroke:none"
         id="path67" />
      <path
         d="M 79.7813,253.266 H 119.121 V 242.707 H 94.6602 V 231.195 H 117.77 V 220.637 H 94.6602 V 208.008 H 120 V 197.457 H 79.7813 v 55.809"
         style="fill:#221e1f;fill-opacity:1;fill-rule:nonzero;stroke:none"
         id="path69" />
      <path
         d="m 183.602,198.734 c -4.243,-1.039 -8.961,-2.238 -16.551,-2.238 -14.871,0 -32.059,7.512 -32.059,28.621 0,19.43 13.59,29.098 31.981,29.098 5.679,0 11.187,-1.277 16.547,-2.879 l -1.2,-12.07 c -4.8,2.64 -9.441,3.922 -14.55,3.922 -10.547,0 -17.43,-7.68 -17.43,-18.071 0,-10.949 7.75,-17.59 18.633,-17.59 4.879,0 9.84,1.278 13.906,2.879 l 0.723,-11.672"
         style="fill:#221e1f;fill-opacity:1;fill-rule:nonzero;stroke:none"
         id="path71" />
      <path
         d="M 33.4492,145.746 22.3398,118.074 h 22.2305 l -11.1094,27.672 z m -3.9179,7.52 h 8.3984 l 23.582,-55.809 h -8.7109 l -5.6797,14.07 H 19.7813 L 14.1016,97.457 H 5.71094 l 23.82036,55.809"
         style="fill:#221e1f;fill-opacity:1;fill-rule:nonzero;stroke:none"
         id="path73" />
      <path
         d="m 77.5391,153.266 h 8 V 104.484 H 108.891 V 97.457 H 77.5508 v 55.809"
         style="fill:#221e1f;fill-opacity:1;fill-rule:nonzero;stroke:none"
         id="path75" />
      <path
         d="m 133.141,104.008 h 6 c 7.199,0 13.672,1.519 13.672,9.039 0,8.629 -7.602,9.84 -14.473,9.84 h -5.199 z m 0,25.43 h 4.39 c 7.758,0 14.309,0.718 14.309,8.949 0,6.64 -5.68,8.32 -10.309,8.32 h -8.39 z m -8,23.828 h 15.109 c 11.59,0 19.59,-3.758 19.59,-14.078 0,-7.672 -4.481,-11.512 -11.52,-13.27 v -0.16 c 7.59,-0.641 12.95,-5.602 12.95,-13.434 0,-11.988 -9.918,-14.867 -21.27,-14.867 h -14.871 v 55.809"
         style="fill:#221e1f;fill-opacity:1;fill-rule:nonzero;stroke:none"
         id="path77" />
      <path
         d="m 182.902,153.266 h 31.27 v -7.039 h -23.27 v -16.309 h 21.18 v -7.031 h -21.18 v -18.403 h 23.27 v -7.027 h -31.27 v 55.809"
         style="fill:#221e1f;fill-opacity:1;fill-rule:nonzero;stroke:none"
         id="path79" />
      <path
         d="m 242.5,129.277 h 6.789 c 7.602,0 12.07,3.348 12.07,8.707 0,5.043 -3.839,8.243 -11.187,8.243 h -7.68 v -16.95 z m -8,23.989 h 13.672 c 11.039,0 21.668,-1.758 21.668,-15.121 0,-6.79 -5.039,-11.59 -11.52,-12.707 v -0.161 c 2.481,-0.961 3.68,-2.16 5.43,-5.601 l 10.563,-22.219 h -9.122 l -8.55,19.34 c -2.481,5.437 -5.121,5.437 -9.36,5.437 H 242.48 V 97.457 h -8 v 55.809"
         style="fill:#221e1f;fill-opacity:1;fill-rule:nonzero;stroke:none"
         id="path81" />
      <path
         d="m 302.98,146.227 h -17.359 v 7.039 h 42.699 v -7.039 h -17.347 v -48.77 h -7.993 v 48.77"
         style="fill:#221e1f;fill-opacity:1;fill-rule:nonzero;stroke:none"
         id="path83" />
      <path
         d="m 374.98,153.266 h 31.262 v -7.039 h -23.269 v -16.309 h 21.187 v -7.031 h -21.187 v -18.403 h 23.269 V 97.457 H 374.98 v 55.809"
         style="fill:#221e1f;fill-opacity:1;fill-rule:nonzero;stroke:none"
         id="path85" />
      <path
         d="m 427.059,97.457 h 7.99609 v 55.8086 H 427.059 Z"
         style="fill:#221e1f;fill-opacity:1;fill-rule:nonzero;stroke:none"
         id="path87" />
      <path
         d="m 457.223,153.266 h 10.879 l 24.628,-44.942 h 0.161 v 44.942 h 8 V 97.457 H 490.66 l -25.269,45.891 H 465.23 V 97.457 h -8 v 55.809"
         style="fill:#221e1f;fill-opacity:1;fill-rule:nonzero;stroke:none"
         id="path89" />
      <path
         d="m 548.41,144.867 c -4.078,1.598 -6.308,2.321 -10.469,2.321 -4.48,0 -9.761,-1.602 -9.761,-7.442 0,-10.711 23.992,-8.23 23.992,-26.621 0,-11.91 -9.192,-16.6289 -20.391,-16.6289 -3.91,0 -7.75,1.1094 -11.429,2.3086 l 0.8,7.4413 c 2.719,-1.121 7.52,-2.719 11.598,-2.719 4.551,0 10.949,2.559 10.949,9.118 0,12.472 -23.976,9.031 -23.976,26.39 0,9.91 7.828,15.18 17.906,15.18 3.684,0 8.082,-0.629 11.91,-2 l -1.117,-7.348"
         style="fill:#221e1f;fill-opacity:1;fill-rule:nonzero;stroke:none"
         id="path91" />
      <path
         d="m 582.18,146.227 h -17.36 v 7.039 h 42.7 v -7.039 h -17.348 v -48.77 h -7.992 v 48.77"
         style="fill:#221e1f;fill-opacity:1;fill-rule:nonzero;stroke:none"
         id="path93" />
      <path
         d="m 623.941,153.266 h 31.27 v -7.039 h -23.27 v -16.309 h 21.18 v -7.031 h -21.18 v -18.403 h 23.27 v -7.027 h -31.27 v 55.809"
         style="fill:#221e1f;fill-opacity:1;fill-rule:nonzero;stroke:none"
         id="path95" />
      <path
         d="m 676.02,97.457 h 7.99609 v 55.8086 H 676.02 Z"
         style="fill:#221e1f;fill-opacity:1;fill-rule:nonzero;stroke:none"
         id="path97" />
      <path
         d="m 706.18,153.266 h 10.871 l 24.621,-44.942 h 0.16 v 44.942 h 8 V 97.457 h -10.23 l -25.27,45.891 h -0.16 V 97.457 h -7.992 v 55.809"
         style="fill:#221e1f;fill-opacity:1;fill-rule:nonzero;stroke:none"
         id="path99" />
      <path
         d="m 840.789,144.066 c -3.519,2.079 -7.43,3.122 -11.5,3.122 -12.867,0 -21.43,-9.27 -21.43,-21.833 0,-13.109 9.43,-21.828 21.02,-21.828 4,0 9.363,1.047 12.16,2.719 l 0.481,-7.7616 c -4.239,-1.7578 -9.43,-1.9883 -12.707,-1.9883 -17.661,0 -29.411,11.3519 -29.411,29.1019 0,17.187 12.457,28.617 29.489,28.617 4.32,0 8.55,-0.629 12.558,-2.391 l -0.636,-7.758"
         style="fill:#221e1f;fill-opacity:1;fill-rule:nonzero;stroke:none"
         id="path101" />
      <path
         d="m 859.539,153.266 h 31.262 v -7.039 h -23.27 v -16.309 h 21.192 v -7.031 h -21.192 v -18.403 h 23.27 v -7.027 h -31.262 v 55.809"
         style="fill:#221e1f;fill-opacity:1;fill-rule:nonzero;stroke:none"
         id="path103" />
      <path
         d="m 911.531,153.266 h 10.879 l 24.629,-44.942 h 0.16 v 44.942 h 8 V 97.457 h -10.238 l -25.262,45.891 h -0.16 V 97.457 h -8.008 v 55.809"
         style="fill:#221e1f;fill-opacity:1;fill-rule:nonzero;stroke:none"
         id="path105" />
      <path
         d="m 988.492,146.227 h -17.351 v 7.039 h 42.699 v -7.039 h -17.348 v -48.77 h -8 v 48.77"
         style="fill:#221e1f;fill-opacity:1;fill-rule:nonzero;stroke:none"
         id="path107" />
      <path
         d="m 1030.26,153.266 h 31.25 v -7.039 h -23.26 v -16.309 h 21.19 v -7.031 h -21.19 v -18.403 h 23.26 v -7.027 h -31.25 v 55.809"
         style="fill:#221e1f;fill-opacity:1;fill-rule:nonzero;stroke:none"
         id="path109" />
      <path
         d="m 1089.85,129.277 h 6.8 c 7.6,0 12.07,3.348 12.07,8.707 0,5.043 -3.84,8.243 -11.19,8.243 h -7.68 z m -7.99,23.989 h 13.67 c 11.03,0 21.67,-1.758 21.67,-15.121 0,-6.79 -5.04,-11.59 -11.52,-12.707 v -0.161 c 2.48,-0.961 3.69,-2.16 5.44,-5.601 l 10.55,-22.219 h -9.11 l -8.55,19.34 c -2.49,5.437 -5.12,5.437 -9.36,5.437 h -4.8 V 97.457 h -7.99 v 55.809"
         style="fill:#221e1f;fill-opacity:1;fill-rule:nonzero;stroke:none"
         id="path111" />
      <path
         d="m 11.3789,57.2656 h 29.6602 v -7.039 H 19.3789 V 33.918 H 40.0898 V 26.8867 H 19.3789 V 1.45703 h -8 V 57.2656"
         style="fill:#221e1f;fill-opacity:1;fill-rule:nonzero;stroke:none"
         id="path113" />
      <path
         d="m 83.8516,7.52734 c 12.8711,0 18.3904,10.71876 18.3904,21.82816 0,11.3593 -6.0701,21.9101 -18.3904,21.8398 -12.3203,0.0703 -18.3907,-10.4805 -18.3907,-21.8398 0,-11.1094 5.5118,-21.82816 18.3907,-21.82816 z m 0,50.69926 c 16.9494,0 26.8594,-12.3203 26.8594,-28.8711 0,-16.9375 -9.84,-28.859406 -26.8594,-28.859406 -17.0313,0 -26.8711,11.921906 -26.8711,28.859406 0,16.5508 9.9101,28.8711 26.8711,28.8711"
         style="fill:#221e1f;fill-opacity:1;fill-rule:nonzero;stroke:none"
         id="path115" />
      <path
         d="m 137.621,33.2852 h 6.801 c 7.59,0 12.07,3.3515 12.07,8.7109 0,5.0391 -3.84,8.2305 -11.191,8.2305 h -7.68 z m -8,23.9804 h 13.668 c 11.043,0 21.672,-1.7578 21.672,-15.1211 0,-6.7773 -5.039,-11.5898 -11.52,-12.6992 v -0.168 c 2.481,-0.9531 3.68,-2.1601 5.438,-5.5898 L 169.43,1.45703 h -9.117 l -8.551,19.34767 c -2.481,5.4414 -5.121,5.4414 -9.36,5.4414 h -4.793 V 1.45703 h -8 V 57.2656"
         style="fill:#221e1f;fill-opacity:1;fill-rule:nonzero;stroke:none"
         id="path117" />
      <path
         d="m 216.75,57.2656 h 29.66 v -7.039 H 224.75 V 33.918 h 20.711 V 26.8867 H 224.75 V 1.45703 h -8 V 57.2656"
         style="fill:#221e1f;fill-opacity:1;fill-rule:nonzero;stroke:none"
         id="path119" />
      <path
         d="m 308.641,24.5664 c 0,-15.67968 -7.911,-24.070306 -21.668,-24.070306 -13.75,0 -21.66,8.390626 -21.66,24.070306 v 32.6992 h 7.988 V 25.6055 c 0,-10.711 3.359,-18.07816 13.672,-18.07816 10.316,0 13.668,7.36716 13.668,18.07816 v 31.6601 h 8 V 24.5664"
         style="fill:#221e1f;fill-opacity:1;fill-rule:nonzero;stroke:none"
         id="path121" />
      <path
         d="m 330.902,57.2656 h 10.868 l 24.632,-44.9297 h 0.161 v 44.9297 h 8 V 1.45703 H 364.332 L 339.063,47.3555 h -0.161 V 1.45703 H 330.91 V 57.2656"
         style="fill:#221e1f;fill-opacity:1;fill-rule:nonzero;stroke:none"
         id="path123" />
      <path
         d="m 404.262,8.48438 h 8.39 c 13.75,0 21.348,6.64062 21.348,21.04292 0,13.0196 -8.871,20.6993 -20.391,20.6993 h -9.347 z m -8,48.78122 h 16.468 c 16.551,0 29.75,-10.2304 29.75,-27.4179 0,-18.711 -11.351,-28.39067 -29.75,-28.39067 H 396.262 V 57.2656"
         style="fill:#221e1f;fill-opacity:1;fill-rule:nonzero;stroke:none"
         id="path125" />
      <path
         d="M 484.09,49.7461 472.98,22.0742 h 22.231 l -11.109,27.6719 z m -3.918,7.5195 h 8.398 L 512.16,1.45703 h -8.719 L 497.77,15.5273 H 470.43 L 464.75,1.45703 h -8.391 L 480.18,57.2656"
         style="fill:#221e1f;fill-opacity:1;fill-rule:nonzero;stroke:none"
         id="path127" />
      <path
         d="m 528.34,57.2656 h 13.191 l 17.508,-46.3789 17.191,46.3789 h 13.192 V 1.45703 H 581.43 V 49.7461 h -0.16 L 562.801,1.45703 h -7.828 L 536.5,49.7461 h -0.16 V 1.45703 h -7.988 V 57.2656"
         style="fill:#221e1f;fill-opacity:1;fill-rule:nonzero;stroke:none"
         id="path129" />
      <path
         d="m 612.18,57.2656 h 31.269 v -7.039 H 620.18 V 33.918 h 21.191 V 26.8867 H 620.18 V 8.48438 h 23.269 V 1.45703 H 612.18 V 57.2656"
         style="fill:#221e1f;fill-opacity:1;fill-rule:nonzero;stroke:none"
         id="path131" />
      <path
         d="m 664.172,57.2656 h 10.879 L 699.68,12.3359 h 0.16 v 44.9297 h 8 V 1.45703 H 697.609 L 672.34,47.3555 h -0.16 V 1.45703 h -8.008 V 57.2656"
         style="fill:#221e1f;fill-opacity:1;fill-rule:nonzero;stroke:none"
         id="path133" />
      <path
         d="m 741.121,50.2266 h -17.34 v 7.039 h 42.699 v -7.039 H 749.141 V 1.45703 h -8.012 V 50.2266"
         style="fill:#221e1f;fill-opacity:1;fill-rule:nonzero;stroke:none"
         id="path135" />
      <path
         d="M 804.082,49.7461 792.961,22.0742 h 22.23 z m -3.91,7.5195 h 8.398 L 832.141,1.45703 h -8.711 l -5.68,14.07027 h -27.348 l -5.66,-14.07027 h -8.402 l 23.832,55.80857"
         style="fill:#221e1f;fill-opacity:1;fill-rule:nonzero;stroke:none"
         id="path137" />
      <path
         d="m 848.18,57.2656 h 7.992 V 8.48438 h 23.359 V 1.45703 H 848.18 V 57.2656"
         style="fill:#221e1f;fill-opacity:1;fill-rule:nonzero;stroke:none"
         id="path139" />
      <path
         d="m 934.012,30.8047 h 7.91 c 4.957,0 11.199,2.4805 11.199,9.832 0,7.0313 -7.359,9.5899 -12.308,9.5899 h -6.801 z m -8,26.4609 h 14.64 c 11.43,0 20.938,-3.9883 20.938,-16.7109 0,-12.3867 -9.66,-16.7969 -19.738,-16.7969 H 934.02 V 1.45703 h -8.008 V 57.2656"
         style="fill:#221e1f;fill-opacity:1;fill-rule:nonzero;stroke:none"
         id="path141" />
      <path
         d="m 979.371,57.2656 h 8 V 33.918 h 26.699 v 23.3476 h 7.99 V 1.45703 h -7.99 V 26.8867 H 987.371 V 1.45703 h -8 V 57.2656"
         style="fill:#221e1f;fill-opacity:1;fill-rule:nonzero;stroke:none"
         id="path143" />
      <path
         d="m 1060.32,24.8047 -21.82,32.4609 h 9.35 l 16.63,-25.0312 16.23,25.0312 h 9.36 L 1068.32,24.8047 V 1.45703 h -8 V 24.8047"
         style="fill:#221e1f;fill-opacity:1;fill-rule:nonzero;stroke:none"
         id="path145" />
      <path
         d="m 1131.44,48.8672 c -4.09,1.5976 -6.31,2.3281 -10.47,2.3281 -4.48,0 -9.77,-1.6094 -9.77,-7.4492 0,-10.7109 24,-8.2305 24,-26.6211 0,-11.91016 -9.19,-16.628906 -20.39,-16.628906 -3.92,0 -7.76,1.121096 -11.44,2.320316 l 0.8,7.44139 c 2.72,-1.12108 7.52,-2.73046 11.6,-2.73046 4.55,0 10.95,2.55856 10.95,9.12896 0,12.4687 -23.98,9.0312 -23.98,26.3789 0,9.9101 7.83,15.1914 17.91,15.1914 3.68,0 8.07,-0.6407 11.9,-2 l -1.11,-7.3594"
         style="fill:#221e1f;fill-opacity:1;fill-rule:nonzero;stroke:none"
         id="path147" />
      <path
         d="m 1154.09,1.45703 h 8 v 55.8086 h -8 z"
         style="fill:#221e1f;fill-opacity:1;fill-rule:nonzero;stroke:none"
         id="path149" />
      <path
         d="m 1222.87,48.0664 c -3.51,2.0781 -7.43,3.1289 -11.51,3.1289 -12.87,0 -21.43,-9.2773 -21.43,-21.8398 0,-13.1094 9.44,-21.82816 21.03,-21.82816 3.99,0 9.35,1.04688 12.16,2.73046 l 0.47,-7.76171 c -4.23,-1.761715 -9.44,-1.999996 -12.71,-1.999996 -17.67,0 -29.42,11.351606 -29.42,29.101606 0,17.1875 12.47,28.6289 29.5,28.6289 4.32,0 8.55,-0.6407 12.55,-2.4024 l -0.64,-7.7578"
         style="fill:#221e1f;fill-opacity:1;fill-rule:nonzero;stroke:none"
         id="path151" />
      <path
         d="m 1266.55,48.8672 c -4.07,1.5976 -6.3,2.3281 -10.46,2.3281 -4.48,0 -9.76,-1.6094 -9.76,-7.4492 0,-10.7109 23.99,-8.2305 23.99,-26.6211 0,-11.91016 -9.2,-16.628906 -20.39,-16.628906 -3.92,0 -7.75,1.121096 -11.43,2.320316 l 0.79,7.44139 c 2.72,-1.12108 7.52,-2.73046 11.6,-2.73046 4.55,0 10.96,2.55856 10.96,9.12896 0,12.4687 -23.99,9.0312 -23.99,26.3789 0,9.9101 7.83,15.1914 17.91,15.1914 3.67,0 8.07,-0.6407 11.92,-2 l -1.14,-7.3594"
         style="fill:#221e1f;fill-opacity:1;fill-rule:nonzero;stroke:none"
         id="path153" />
    </g>
  </g>
</svg>
